<?xml version="1.0" encoding="UTF-8" standalone="no"?>
<svg width="400px" height="400px" viewBox="0 0 400 400" version="1.1" xmlns="http://www.w3.org/2000/svg" xmlns:xlink="http://www.w3.org/1999/xlink">
    <!-- Generator: Sketch 46.2 (44496) - http://www.bohemiancoding.com/sketch -->
    <title>Everytime</title>
    <desc>Created with Sketch.</desc>
    <defs>
        <polygon id="path-1" points="0 0.164791876 0 113.74572 44.8145377 113.74572 44.8145377 0.164791876 3.30280827e-20 0.164791876"></polygon>
    </defs>
    <g id="Home-Pages" stroke="none" stroke-width="1" fill="none" fill-rule="evenodd">
        <g id="Order-home-page_new-copy" transform="translate(-760.000000, -1440.000000)">
            <g id="Group-7-Copy" transform="translate(845.000000, 1553.000000)">
                <g id="ray_instant">
                    <path d="M171.613354,9.74711337 C171.461445,8.16466053 171.278667,6.48310131 169.419204,5.60170432 C168.570301,5.19877999 167.597109,5.11998228 166.667783,5.26133074 C112.693794,13.5017833 85.2031437,11.7787943 29.0130705,22.3888644 L43.5687121,133.984283 C43.9960069,136.414827 46.3339428,138.027336 48.7579876,137.561861 C91.3899819,129.376648 138.96511,120.426204 181.27704,110.71784 C178.05527,77.0606602 174.834312,43.404293 171.613354,9.74711337" id="Fill-1" fill="#FED700"></path>
                    <g id="Group-5" transform="translate(0.000000, 22.883828)">
                        <mask id="mask-2" fill="white">
                            <use xlink:href="#path-1"></use>
                        </mask>
                        <g id="Clip-4"></g>
                        <path d="M37.6680639,56.7616409 C34.3577481,38.1913781 34.8670899,19.0646574 30.2553934,0.767343403 C30.1611611,0.39528827 29.8882124,0.221445915 29.5949549,0.198700187 C29.2887,0.107717272 28.9548252,0.188952017 28.7809828,0.575629404 C22.6786287,14.0703453 17.916648,28.1044598 14.8167301,42.5967384 C11.3528806,58.7941342 6.7379347,73.4513193 0.0880584637,88.6730858 C-0.110966662,89.1296251 0.016571888,89.7218264 0.57059285,89.8574884 C8.47960764,91.7973741 20.1506035,92.5837265 26.109172,98.3067143 C31.6916237,103.667395 37.3512484,108.719384 43.426795,113.540666 C43.9531962,113.959025 44.7931634,113.721819 44.8029116,112.969586 C45.0604257,93.9468455 40.9889403,75.3895803 37.6680639,56.7616409" id="Fill-3" fill="#3250D2" style="mix-blend-mode: multiply;" mask="url(#mask-2)"></path>
                    </g>
                    <path d="M42.7246019,18.8646575 C42.7099796,19.1457297 42.9349999,18.5445926 42.5369496,19.1002382 C42.809086,18.8459735 42.8212712,18.8142919 42.5743176,19.0076306 C42.7481599,18.8922773 42.9301258,18.7899215 43.1185904,18.7013756 C42.3947888,18.9255835 44.1583951,18.5551531 43.3541711,18.6526348 C43.4735862,18.6388249 44.7400359,18.6347631 44.0844715,18.6128297 C44.2826843,18.6510101 44.4776477,18.7013756 44.670174,18.7639264 C44.3509215,18.6128297 44.3533585,18.6225779 44.6742358,18.7915462 C44.2266323,18.2334635 44.5873146,18.8427241 44.6555518,19.1327321 C44.7774039,19.6575086 44.7384112,20.2789544 44.7034803,20.8142913 C44.6059986,22.3325687 44.5150156,20.9645756 45.7749665,21.3065739 C41.7627825,20.2180283 40.0511664,26.4389851 44.0601011,27.5275307 C51.976427,29.6761897 53.5369464,16.2009702 47.6880448,13.0872424 C43.0097358,10.5957727 36.5499489,13.3098256 36.2737508,18.8646575 C36.0666022,23.0141282 42.5182656,23.0035677 42.7246019,18.8646575" id="Fill-6" fill="#FFA000"></path>
                    <path d="M66.9721172,16.1356574 C67.0427915,15.765227 67.0281692,15.4151052 66.8933195,15.839963 C66.7454723,16.3078751 66.4554643,15.6141304 66.9120035,15.9415064 C66.882759,15.9203854 67.4692739,16.1397192 67.6520521,16.0487363 C68.1427099,16.2030823 68.0200455,16.1210352 67.282434,15.802595 C67.2385672,15.6709947 67.2702488,15.7059256 67.378291,15.9073878 C67.3214266,16.244512 68.3344239,17.8748933 68.4757724,18.3460548 C68.9209388,19.8302136 68.3027424,18.7213594 69.2938063,18.7010507 C65.1483972,18.7863472 65.133775,25.2371983 69.2938063,25.1527141 C72.5431961,25.0861017 75.1622042,22.3939822 75.1516437,19.1137232 C75.1443326,16.8302145 74.0062338,14.1494679 72.7146014,12.3224985 C69.60656,7.92444939 61.8315826,8.72217459 60.7519728,14.420792 C60.4270338,16.1307833 61.2288208,17.9008884 63.0046123,18.3882969 C64.579754,18.8212781 66.6471783,17.8562093 66.9721172,16.1356574" id="Fill-8" fill="#FFA000"></path>
                    <path d="M92.6030603,13.5383389 C92.6168702,13.5131562 93.046602,12.8567794 92.7647175,13.2166493 C92.4852699,13.5740822 92.9166264,13.0655527 93.0011106,13.0135625 C92.6834827,13.2077135 92.6997297,13.3466249 93.0002982,13.080175 C93.2959927,12.8177867 92.3967241,13.3571854 92.9304364,13.1467875 C92.6493641,13.2580791 92.2789337,13.1337899 92.7907126,13.1922789 C93.2098839,13.2410198 91.9353107,13.0736762 92.6331172,13.1914666 L92.2407534,13.0176242 C92.4738971,13.159785 92.4820206,13.1492245 92.2659361,12.9859427 C92.0839703,12.8307843 92.0587875,12.8104756 92.1887631,12.928266 C92.2716226,12.9997526 92.3479832,13.0785503 92.4170328,13.1622221 C92.3236128,12.8868363 92.010859,12.8714017 92.2992424,13.0858614 C92.1643927,12.7341149 92.1343359,12.6748136 92.2106965,12.907145 C92.2529386,13.0371205 92.2878695,13.1703455 92.3138646,13.3060076 C92.1692668,12.6561296 92.2756843,14.0021893 92.2789337,13.9802559 C92.1530198,14.9112061 91.8605748,15.4099875 91.278934,15.6951214 C89.7159775,16.4644144 89.2878704,18.6829353 90.1213389,20.1086051 C91.0547261,21.7032432 92.9661796,22.037118 94.5348226,21.2662002 C98.8297035,19.1557216 100.244,12.1573483 96.9791761,8.60007877 C94.0368536,5.39536807 88.9694302,6.69593634 87.0327939,10.2824503 C85.0596019,13.9347645 90.626619,17.1963395 92.6030603,13.5383389" id="Fill-10" fill="#FFA000"></path>
                    <path d="M113.570235,12.1540176 C113.842372,11.8282663 113.86593,11.7843995 113.670967,11.9452443 C113.501998,12.0865928 113.889488,11.9338715 113.898424,11.9419949 C113.642534,11.6999154 114.237985,12.498453 114.264793,12.575626 C114.269667,12.5869988 114.313533,13.5626281 114.306222,13.19301 C114.330593,14.3489804 114.065767,13.2579978 114.287538,13.3644153 C114.274541,13.3579166 115.712396,13.3205486 115.346839,13.2531237 C113.635223,12.9371206 111.867555,13.7234729 111.378522,15.5057632 C110.947166,17.0735938 111.908985,19.1556403 113.631162,19.4732682 C118.745701,20.4164036 121.923604,14.9980461 120.324905,10.4748954 C119.540177,8.25068813 117.869178,6.40259767 115.562924,5.72753694 C113.284289,5.06059968 110.543429,5.75271971 109.008905,7.59268669 C107.892739,8.92899825 107.698588,10.8445135 109.008905,12.1540176 C110.155939,13.3018646 112.448384,13.4976403 113.570235,12.1540176" id="Fill-12" fill="#FFA000"></path>
                    <path d="M135.104592,9.21721912 C135.165518,9.12542386 135.946996,8.21072063 135.625306,8.57059055 C135.625306,8.57059055 135.107841,8.80779601 135.430343,8.59902271 C135.665111,8.44792609 135.177703,8.53809665 135.447402,8.59171159 C135.786963,8.66076112 135.108653,8.41786923 135.638304,8.66969694 C135.81702,8.75418108 136.016045,8.8914678 135.736598,8.68594389 C135.899067,8.80454662 136.041228,8.95401855 136.189075,9.09049292 C136.245127,9.14167081 136.77884,9.72737332 136.518888,9.41380721 C136.333673,9.19041166 136.817832,9.97757634 136.915314,10.0466259 C137.189887,10.2407769 136.73741,9.62989163 136.814583,9.67375839 C136.73741,9.62989163 136.968929,9.50722716 136.779652,9.87846995 C136.604185,10.2237176 136.575753,10.4714836 136.258125,10.8589733 C136.20451,10.9255858 135.389726,11.4869179 135.949433,11.2529618 C134.343422,11.9247732 133.192326,13.3878109 133.696793,15.2204668 C134.112715,16.7354948 136.046915,18.150604 137.663486,17.4731063 C142.400284,15.4909785 144.99086,9.83541553 141.591998,5.50560362 C140.274371,3.82648144 138.456337,2.50722917 136.301179,2.22534461 C133.344235,1.83785487 131.092408,3.61689579 129.534325,5.96133054 C128.569256,7.41218309 129.249191,9.53078524 130.691108,10.3748142 C132.271124,11.2984533 134.137898,10.6721334 135.104592,9.21721912" id="Fill-14" fill="#FFA000"></path>
                    <path d="M155.210922,6.33988445 C154.961531,6.70137907 155.251539,6.33338567 155.634155,6.3870006 C155.743822,6.40162286 156.011084,6.49747986 156.28972,6.91908818 C156.657713,7.47717088 156.463562,8.10674016 156.717827,8.62745487 C156.829118,8.85572451 157.059825,8.94670742 157.13781,8.52591144 C157.429443,8.34557031 157.340085,8.33825918 156.868923,8.50560276 C156.727575,8.42599271 156.568355,8.42518036 156.392075,8.50397806 C152.253977,8.66401051 152.233669,15.1164863 156.392075,14.9548292 C159.140247,14.849224 161.922537,13.9426442 162.83724,11.0441885 C163.578101,8.69406737 163.126436,5.7501202 161.859986,3.66238725 C159.114252,-0.861575707 152.693457,-1.35467061 149.640656,3.08318352 C148.652841,4.51941381 149.372581,6.66319874 150.797438,7.49666722 C152.396951,8.43249149 154.219858,7.77855179 155.210922,6.33988445" id="Fill-16" fill="#FFA000"></path>
                    <path d="M56.2782942,48.1900755 C54.8623725,50.463836 54.2986034,54.335484 55.7738264,56.6068075 C56.7429569,58.0999021 58.6422252,58.6839799 60.3603401,58.2160678 C63.07683,57.4768316 64.5065615,54.7042897 64.55449,52.0454765 C64.6016061,49.3655423 62.7364564,46.3046171 60.0630209,46.4987681 C60.0630209,46.4987681 57.3384076,46.4898323 56.2782942,48.1900755" id="Fill-18" fill="#FF6E00"></path>
                    <path d="M89.3370174,42.2481601 C87.9202834,44.5219206 87.3573267,48.3935686 88.8317373,50.664892 C89.8008678,52.1579866 91.7009485,52.7420645 93.418251,52.2741523 C96.1347409,51.5349162 97.5644724,48.7623743 97.6124009,46.1035611 C97.6603294,43.4236268 95.7943673,40.3627017 93.1217442,40.5568527 C93.1217442,40.5568527 90.3963185,40.5479169 89.3370174,42.2481601" id="Fill-20" fill="#FF6E00"></path>
                    <path d="M119.681038,38.4870726 C118.264304,40.7608331 117.701347,44.6324811 119.17657,46.9038046 C120.145701,48.3968992 122.044969,48.980977 123.763084,48.5130649 C126.479574,47.7738287 127.909305,45.0012868 127.957234,42.3424736 C128.00435,39.6625394 126.1392,36.6016142 123.465765,36.7957652 C123.465765,36.7957652 120.740339,36.7868294 119.681038,38.4870726" id="Fill-22" fill="#FF6E00"></path>
                    <path d="M149.25081,33.3464567 C147.834076,35.6202172 147.271119,39.4918652 148.74553,41.7623763 C149.715473,43.2562833 151.614741,43.8403611 153.332856,43.372449 C156.049346,42.6332128 157.479077,39.8606709 157.526194,37.2018577 C157.574122,34.5219235 155.70816,31.4609983 153.035537,31.654337 C153.035537,31.654337 150.310111,31.6454011 149.25081,33.3464567" id="Fill-24" fill="#FF6E00"></path>
                    <path d="M60.6406812,77.1949413 C59.2239473,79.4695141 58.6609905,83.3403497 60.1354011,85.6116732 C61.1045316,87.1055802 63.0037999,87.6888457 64.7219148,87.2217459 C67.4384047,86.4816973 68.8681362,83.7091555 68.9160647,81.0511546 C68.9631808,78.3712204 67.0980311,75.3102952 64.4245956,75.5036339 C64.4245956,75.5036339 61.6999823,75.4946981 60.6406812,77.1949413" id="Fill-26" fill="#FF6E00"></path>
                    <path d="M102.455129,74.1669162 C100.996153,71.9199631 97.7288915,69.768867 95.0465202,70.1417345 C93.2829139,70.3870635 91.9490394,71.859037 91.6444091,73.6137075 C91.1626871,76.3870617 93.0676418,78.8574103 95.455131,80.028003 C97.8621165,81.2067192 101.425072,80.8151677 102.38283,78.3123252 C102.38283,78.3123252 103.546112,75.8468507 102.455129,74.1669162" id="Fill-28" fill="#FF6E00"></path>
                    <path d="M124.042694,67.4920196 C122.626772,69.7665925 122.063003,73.6374281 123.538226,75.9087516 C124.507357,77.4026585 126.406625,77.985924 128.12474,77.5188242 C130.84123,76.7787757 132.270961,74.0062338 132.31889,71.3474206 C132.366006,68.6682987 130.500856,65.6073735 127.827421,65.8007122 C127.827421,65.8007122 125.102807,65.7917764 124.042694,67.4920196" id="Fill-30" fill="#FF6E00"></path>
                    <path d="M153.612466,62.3514037 C152.196544,64.6251642 151.632775,68.4968122 153.107998,70.7681356 C154.077129,72.2620426 155.976397,72.8453081 157.694512,72.377396 C160.411002,71.6381598 161.840733,68.8656179 161.888662,66.2068047 C161.935778,63.5268705 160.070628,60.4667576 157.397193,60.6600963 C157.397193,60.6600963 154.671767,60.6511605 153.612466,62.3514037" id="Fill-32" fill="#FF6E00"></path>
                    <path d="M63.1626139,103.923122 C61.7458799,106.196883 61.1829231,110.068531 62.6573338,112.339854 C63.6272766,113.832949 65.526545,114.417026 67.2446598,113.949114 C69.9603373,113.209878 71.3900689,110.437336 71.4379974,107.778523 C71.4859259,105.098589 69.6199638,102.038476 66.9473406,102.231815 C66.9473406,102.231815 64.2219149,102.222879 63.1626139,103.923122" id="Fill-34" fill="#FF6E00"></path>
                    <path d="M96.2205248,97.9812066 C94.8046032,100.254967 94.240834,104.126615 95.716057,106.397939 C96.6851875,107.891033 98.5844559,108.475111 100.302571,108.007199 C103.019061,107.267963 104.448792,104.495421 104.496721,101.836608 C104.543837,99.1566734 102.678687,96.0957482 100.005252,96.2898992 C100.005252,96.2898992 97.2806382,96.2809634 96.2205248,97.9812066" id="Fill-36" fill="#FF6E00"></path>
                    <path d="M126.565358,94.2201192 C125.148624,96.4938797 124.585667,100.365528 126.060078,102.636851 C127.029208,104.129946 128.929289,104.714024 130.646591,104.246111 C133.363081,103.506875 134.792813,100.734333 134.840741,98.0755202 C134.88867,95.3955859 133.022708,92.3346607 130.350084,92.5288118 C130.350084,92.5288118 127.624659,92.519876 126.565358,94.2201192" id="Fill-38" fill="#FF6E00"></path>
                    <path d="M157.645609,89.8942878 C156.229687,92.1680483 155.665918,96.0396962 157.141141,98.3110197 C158.110271,99.8041143 160.00954,100.388192 161.727655,99.92028 C164.444144,99.1810438 165.873876,96.408502 165.921805,93.7496888 C165.968921,91.0697545 164.103771,88.0088293 161.430335,88.2029804 C161.430335,88.2029804 158.70491,88.1940445 157.645609,89.8942878" id="Fill-40" fill="#FF6E00"></path>
                    <path d="M202.583399,60.2022229 C201.96764,55.968268 203.471295,51.8496664 206.457484,48.8374821 C208.299076,46.9788311 205.42824,44.1055582 203.584211,45.9658339 C199.494042,50.0917466 197.83604,55.5702178 198.667072,61.2818327 C199.042376,63.8585988 202.956266,62.7627421 202.583399,60.2022229" id="Fill-48" fill="#3250D2"></path>
                    <path d="M214.220439,74.3810166 C217.122144,72.8010008 220.023849,71.2193603 222.924742,69.6393445 C225.220436,68.3883294 223.17332,64.8806132 220.874377,66.1324406 C217.973484,67.7124564 215.071779,69.2932845 212.170886,70.8741126 C209.87438,72.1251277 211.922308,75.6336564 214.220439,74.3810166" id="Fill-50" fill="#3250D2"></path>
                    <path d="M218.848626,93.4291833 C220.856749,93.0595653 222.87137,93.3942524 224.676406,94.3349508 C226.990784,95.5429114 229.047648,92.0384445 226.725959,90.8288592 C223.897365,89.3528238 220.899803,88.9360896 217.769016,89.5128563 C215.201998,89.9856425 216.289731,93.9011572 218.848626,93.4291833" id="Fill-52" fill="#3250D2"></path>
                </g>
                <path d="M227.452724,156.995755 C218.77466,146.725816 210.096596,136.465101 201.418532,126.195162 C201.456964,126.126752 201.480024,126.049119 201.533829,125.987627 C216.2458,107.279442 206.991248,80.5757562 201.679873,73.0591231 C191.733536,58.9843642 171.664072,54.6268846 155.799126,60.038184 C135.737348,66.8784046 122.547306,85.8187211 122.554993,105.456972 C122.355143,109.30868 122.854766,113.243402 124.192218,117.194265 C125.460491,121.652438 127.474356,126.018373 130.333735,130.169085 C132.47827,133.475051 135.107055,136.318289 138.104792,138.632696 C152.501615,150.469144 173.608757,151.361547 188.551323,141.091608 C196.91424,150.991827 205.284844,160.892813 213.655447,170.792263 C221.772396,180.392707 235.515867,166.533939 227.452724,156.995755" id="Fill-502" fill="#507AEF"></path>
                <path d="M200.608734,103.350983 C200.224409,100.444716 199.832397,97.5315302 199.440385,94.6260314 C197.880025,89.0617706 195.066764,84.2338769 191.000603,80.1369699 C188.786889,78.4313344 186.573176,76.7172439 184.351776,75.0031533 C179.232564,72.0353938 173.713654,70.5442119 167.787358,70.521921 L166.918783,70.521921 C162.399118,70.3520493 158.179227,71.2974893 154.266796,73.3497861 C150.200635,74.6803201 146.680216,76.9393839 143.705539,80.1369699 C140.500266,83.1116472 138.240434,86.6328351 136.918355,90.705914 C134.858372,94.6183449 133.920618,98.8313182 134.089721,103.350983 C134.481733,106.264168 134.873745,109.168898 135.25807,112.075166 C136.818431,117.639427 139.639378,122.46732 143.705539,126.564227 C145.919252,128.269863 148.132966,129.983953 150.346679,131.698044 C155.465891,134.665804 160.992488,136.156217 166.918783,136.179276 L167.787358,136.179276 C172.307023,136.348379 176.519228,135.403708 180.431659,133.350643 C184.505506,132.029332 188.025925,129.761045 191.000603,126.564227 C194.198189,123.58955 196.458021,120.069131 197.787787,116.002201 C199.840083,112.090539 200.785523,107.869879 200.608734,103.350983" id="Fill-503" fill="#FFFFFF"></path>
                <g id="Group-4" transform="translate(149.095477, 77.437186)">
                    <path d="M31.6135758,14.1178796 C31.6978627,13.5676692 31.2506738,13.2895983 31.3724216,12.5550354 C31.4520259,12.0779018 31.2272607,11.6306631 31.1640456,11.2209118 C31.0820999,10.6968002 31.0095195,10.232716 30.9463043,9.84099656 C30.8034848,8.93062265 30.2626438,8.33153635 29.0030225,8.33106182 C28.3802358,8.3305873 27.771497,8.33533254 27.1721233,8.34458575 C27.0667646,8.34577206 26.9590647,8.34102682 26.853706,8.33723063 C26.6336235,8.32821468 26.4158823,8.31872421 26.205165,8.36332944 C25.5730131,8.49643337 25.1047524,8.45064182 24.6552222,8.40508754 C24.1705724,8.35502528 23.7069943,8.3056748 23.0818663,8.4831467 C22.6838447,8.59655789 22.3068949,8.56951003 21.9182385,8.54269944 C21.4804148,8.51209265 21.0308845,8.48196039 20.5228217,8.65468706 C19.7431677,8.9197086 18.9096637,8.79562062 18.1440575,8.87889955 C16.2944278,9.07938586 14.5009894,8.98187122 13.0587465,9.6034974 C12.3774272,9.8967531 11.9232144,9.71311239 11.4291994,9.91905572 C10.7853409,10.1873989 10.230452,10.0424319 9.73643702,10.297963 C9.49528277,10.423 9.35246326,10.34328 9.19091333,10.4332023 C8.81630479,10.6403319 8.617294,10.5807792 8.3410202,10.6555167 C4.90866945,11.5905658 2.62121605,12.6390261 1.3428644,13.458766 C0.371223497,14.0818158 0.123045338,14.7973977 0.130069249,15.9191719 C0.139434462,16.8428325 0.382930014,17.9188152 0.52574952,19.0868556 C0.642814689,20.0456309 0.764562465,21.0611118 0.883968937,22.0870323 C1.48568391,27.1585054 4.6513246,49.108673 9.73643702,51.5376129 C16.7917045,52.6833999 23.0818663,51.2089 34.3107573,47.104988 C36.1344329,43.98409 34.3107573,33.6267393 34.3107573,33.6267393 C33.7980119,28.8013068 32.7116471,21.3415554 31.8687779,15.7851189 C31.7798083,15.2073862 31.4848041,14.9323997 31.6135758,14.1178796 Z" id="Fill-283" fill="#FF6E00"></path>
                    <path d="M2.08739887,11.9801499 C2.08739887,11.9801499 0.544479947,5.80422258 0.731784217,5.04427272 C0.919088488,4.28408559 1.12980579,3.90992357 1.9000946,3.43539977 C3.1409854,2.66880657 8.88888519,-0.369094801 24.7348265,0.105666262 C24.7348265,0.105666262 26.2356019,0.0079143586 26.5165583,1.90861944 C26.7975147,3.80908726 27.1721233,7.51440636 27.1721233,7.51440636 C27.1721233,7.51440636 11.8810709,7.03917078 2.08739887,11.9801499" id="Fill-284" fill="#F6C040"></path>
                    <path d="M35.3382975,46.0069868 C31.992867,49.4976019 24.7966739,49.4976019 24.7966739,49.4976019 C24.7966739,49.4976019 20.7944129,20.7631109 20.5321869,19.6508271 C20.2114283,18.3003324 22.7213056,17.8689902 22.7213056,17.8689902 L31.992867,16.503548 C31.992867,16.503548 37.262008,39.2141102 35.3382975,46.0069868 Z" id="Fill-285" fill="#615795"></path>
                    <path d="M22.7213056,17.8689902 L31.992867,16.503548 L31.992867,16.5054461 L31.992867,16.5063951 L31.992867,16.5116149 L32.0467169,16.8862514 C32.0677887,17.0290831 32.093543,17.2089276 32.1239799,17.4219888 C32.1099321,17.4274458 31.4426607,17.6891457 30.789437,17.7290057 C30.7004675,17.7339882 30.6161806,17.7363608 30.5342349,17.7363608 C29.979346,17.7363608 29.4572354,17.6343382 28.4715467,17.5928174 C28.3919424,17.589733 28.2982902,17.5878349 28.1905903,17.5878349 C26.722593,17.5878349 22.7213056,17.8689902 22.7213056,17.8689902" id="Fill-304" fill="#414C8E"></path>
                    <path d="M32.3581103,23.5203314 C32.0233039,23.7151234 31.5316302,23.6308955 31.152339,23.7723036 C30.2743503,24.1004368 29.4127506,24.254657 28.4855945,24.433078 C27.6122883,24.6010594 26.8045387,24.8905189 25.9125021,24.922312 C25.7696826,24.9275318 24.7441917,24.7977495 24.8050656,25.1730978 C24.7863351,25.0485353 24.6294678,24.9723743 24.5170853,25.0070145 C24.0488246,25.152456 23.6203661,25.3083371 23.1146445,25.3173531 C22.8149577,25.3225728 22.8126164,25.7970966 23.1146445,25.7918769 C23.5899291,25.7835727 24.0066811,25.6625691 24.4491875,25.52472 C24.5592287,25.6566376 24.7418504,25.6798892 24.954909,25.6630436 C25.0883633,25.6523669 25.3552719,25.4696752 25.4957501,25.4400175 C25.7837304,25.3780921 25.8914303,25.4661163 26.1536563,25.4518806 C26.6148931,25.4269681 26.9731125,25.2962367 27.4226428,25.1607602 C28.5417858,24.8238483 29.7616048,24.8283563 30.8667,24.4643965 C31.1734108,24.363323 31.4543672,24.1578542 31.7751257,24.0959288 C32.1099321,24.0306818 32.2878712,24.1092155 32.5945819,23.9298455 C32.8568079,23.7775233 32.6203363,23.3672975 32.3581103,23.5203314" id="Fill-293" fill="#FFFFFE"></path>
                    <path d="M26.2988171,27.823076 C26.0319085,27.8458531 25.6245218,27.8074167 25.3763436,27.9243868 C25.2967393,27.9623487 25.2545958,28.0285448 25.1820154,28.0724382 C25.0462198,28.1540563 24.9525677,28.1417187 24.8120895,28.1699529 C24.5826418,28.2155072 24.5732765,28.286923 24.383631,28.4086384 C24.1260876,28.5754335 23.9270768,28.436398 23.650803,28.4786306 C23.3557988,28.5248967 23.4822292,28.9818631 23.7772334,28.9363088 C23.9856094,28.9038039 24.1658898,29.1121199 24.3953375,29.0407041 C24.5896657,28.9811513 24.6552222,28.7953753 24.8401851,28.7251457 C25.0111003,28.6596614 25.1796741,28.675558 25.3459067,28.6010578 C25.5449174,28.5125591 25.4372175,28.4307037 25.7556347,28.3445776 C25.9242086,28.2992606 26.127902,28.31231 26.2988171,28.2975998 C26.5961627,28.271501 26.6008453,27.7967399 26.2988171,27.823076" id="Fill-294" fill="#FFFFFE"></path>
                    <path d="M32.7467666,25.8540395 C32.2948951,26.1375674 31.7587366,26.0848953 31.3068651,26.3342576 C30.8596761,26.5800609 30.3867328,26.7646506 29.8505744,26.8650124 C29.6000549,26.9124648 29.2839789,26.8740284 29.045166,26.9812708 C28.9187356,27.0379764 28.8391313,27.1838924 28.7267487,27.239649 C28.4270619,27.3869886 28.1601533,27.1940947 27.8534426,27.3616016 C27.5888753,27.5068059 27.8253469,27.9165572 28.0899142,27.7715902 C28.1531294,27.7369499 28.4528162,27.9006606 28.5839292,27.8790698 C28.8321074,27.8392098 28.78294,27.7537955 28.991316,27.6503493 C29.4829897,27.404546 30.2626438,27.2545965 30.8456283,27.1573191 C31.2623803,27.0873268 31.2881346,27.004997 31.6088932,26.7848179 C31.8664366,26.6066342 31.6791323,26.6927603 32.1075908,26.6524258 C32.4306907,26.621819 32.7163297,26.4312977 32.9832383,26.2635535 C33.2384403,26.1031645 33.00431,25.6922269 32.7467666,25.8540395" id="Fill-295" fill="#FFFFFE"></path>
                    <path d="M25.9171847,20.4496879 C25.5097979,20.4200302 25.0836807,20.4926323 24.6575635,20.6022473 C24.6247852,20.367358 24.5990309,20.1312824 24.5803004,19.8937833 C24.5475222,19.4399013 23.8427899,19.4358678 23.8779094,19.8937833 C23.9013225,20.1967667 23.936442,20.4983266 23.9809268,20.7987002 C23.6461204,20.9061798 23.3183379,21.0176929 23.0092859,21.1031072 C22.5738035,21.223399 22.7587664,21.9102722 23.1942488,21.7895059 C23.4845705,21.7093113 23.7959638,21.602069 24.1143811,21.4983855 C24.175255,21.7304276 24.2431528,21.961758 24.2923201,22.1940374 C24.2572006,22.3174136 24.2806136,22.460957 24.3742658,22.5477949 L24.3976788,22.5686739 C24.5639113,22.7226569 24.8284786,22.7010661 24.9478851,22.4965463 C25.1164589,22.2092222 24.8987177,21.8065887 24.8284786,21.5192646 C24.8120895,21.4466624 24.7980417,21.3733485 24.7816525,21.3002718 C25.1679676,21.2003846 25.5542827,21.1349003 25.9171847,21.1614736 C26.3667149,21.1946903 26.3643736,20.4826673 25.9171847,20.4496879" id="Fill-296" fill="#FFFFFE"></path>
                    <path d="M5.55486918,9.61251335 C5.03978244,9.61251335 4.48723484,9.32803633 4.34207403,8.81412705 C3.93000463,7.35259375 3.57646782,5.87729925 3.30253533,4.3830238 C3.13630279,3.47763239 3.82698729,2.97606073 4.53406091,2.97606073 C5.12172806,2.97606073 5.72110172,3.32056501 5.85923862,4.06556738 C6.09102765,5.33088509 6.37432536,6.58196709 6.72317957,7.8192879 C6.91516644,8.49928051 6.72552087,9.23052169 6.02312986,9.5237774 C5.88031035,9.5835674 5.72110172,9.61251335 5.55486918,9.61251335" id="Fill-297" fill="#EB902D"></path>
                    <path d="M6.71849696,32.9147164 L3.99556113,31.7376601 C3.30721794,26.2910759 2.50649218,20.8596765 1.60509038,15.4453599 C1.43885784,14.4557405 2.27236184,13.8077783 3.02157892,13.8077783 C3.51793524,13.8077783 3.97917201,14.0924926 4.08687196,14.7513688 C5.09363241,20.785888 5.96693858,26.841998 6.71849696,32.9147164" id="Fill-298" fill="#DF512A"></path>
                </g>
            </g>
        </g>
    </g>
</svg>
