<?xml version="1.0" encoding="UTF-8" standalone="no"?>
<svg width="80px" height="80px" viewBox="0 0 80 80" version="1.1" xmlns="http://www.w3.org/2000/svg" xmlns:xlink="http://www.w3.org/1999/xlink">
    <!-- Generator: Sketch 46.2 (44496) - http://www.bohemiancoding.com/sketch -->
    <title>Coupon</title>
    <desc>Created with Sketch.</desc>
    <defs>
        <rect id="path-1" x="370" y="330" width="539" height="100" rx="2"></rect>
        <filter x="-1.9%" y="-10.5%" width="103.9%" height="121.0%" filterUnits="objectBoundingBox" id="filter-2">
            <feOffset dx="0" dy="0" in="SourceAlpha" result="shadowOffsetOuter1"></feOffset>
            <feGaussianBlur stdDeviation="3.5" in="shadowOffsetOuter1" result="shadowBlurOuter1"></feGaussianBlur>
            <feColorMatrix values="0 0 0 0 0   0 0 0 0 0   0 0 0 0 0  0 0 0 0.12 0" type="matrix" in="shadowBlurOuter1"></feColorMatrix>
        </filter>
        <polygon id="path-3" points="2.27394727e-21 0.0138685216 2.27394727e-21 29.858099 17.5226584 29.858099 17.5226584 0.0138685216 0 0.0138685216"></polygon>
    </defs>
    <g id="Home-Pages" stroke="none" stroke-width="1" fill="none" fill-rule="evenodd">
        <g id="Order-home-page_new-copy" transform="translate(-829.000000, -340.000000)">
            <rect id="Rectangle-11" fill="#2A378A" x="1" y="60" width="1280" height="330"></rect>
            <g id="Rectangle-9-Copy">
                <use fill="black" fill-opacity="1" filter="url(#filter-2)" xlink:href="#path-1"></use>
                <use fill="#FFFFFF" fill-rule="evenodd" xlink:href="#path-1"></use>
            </g>
            <g id="illustratioon-copy" transform="translate(832.000000, 341.000000)">
                <g id="illustratioon">
                    <path d="M28.8539127,31.0537047 C30.4395065,31.4798898 32.8467565,31.37829 33.9422423,30.2336832 C35.5298495,28.5749534 35.7410942,25.9432529 34.6581924,23.9668473 C34.612722,23.8839344 33.9984512,23.2879976 34.0410693,23.2275403 C33.4668998,22.8925909 32.8366892,22.6617537 32.1435583,22.5926596 C31.0804554,22.48682 30.0678567,22.8016693 29.0847886,23.1463547 C28.2621256,23.4348226 27.4510398,23.8190801 26.8240172,24.415645 C26.1822293,25.0261856 25.9307156,25.8452649 25.9443064,26.6949655 C25.9728303,28.474924 26.9297235,30.5365981 28.8539127,31.0537047" id="Fill-1" fill="#D29100"></path>
                    <path d="M28.1801613,30.3712904 C29.765755,30.7974755 32.173005,30.6958757 33.2683231,29.5512689 C34.8562658,27.8925392 35.4821139,21.6432908 31.4698068,21.6712425 C30.406704,21.5654029 29.3941052,21.8800952 28.4110371,22.2249376 C27.5885419,22.5134055 26.7772884,23.1366658 26.1502657,23.7332307 C25.5084778,24.3437714 25.2569641,25.1628507 25.2705549,26.0125512 C25.2990788,27.7925097 26.255972,29.8541838 28.1801613,30.3712904" id="Fill-3" fill="#FFD700"></path>
                    <path d="M26.4801531,24.8249333 C28.4801824,24.9734857 30.4820574,24.9343847 32.4861136,24.9312441 C32.8679984,24.9306159 32.8686696,24.3751935 32.4861136,24.3758216 C30.4818896,24.3789623 28.4801824,24.4180632 26.4801531,24.2695109 C26.0992751,24.2412451 26.1012885,24.7968246 26.4801531,24.8249333" id="Fill-5" fill="#C59C2D"></path>
                    <path d="M26.9758148,25.89473 C28.8003381,25.8920605 30.6334187,25.840554 32.4478748,26.0541176 C32.8259005,26.0985577 32.8223769,25.5426641 32.4478748,25.4986952 C30.6335865,25.2849745 28.8001704,25.3366381 26.9758148,25.3393076 C26.59393,25.3397787 26.5932588,25.8953582 26.9758148,25.89473" id="Fill-7" fill="#C59C2D"></path>
                    <path d="M27.8607606,27.4535246 C27.6753552,27.5147671 27.3756864,27.6215489 27.1758512,27.5419337 C26.3922827,27.230068 26.9733315,27.0626718 27.24951,27.0066113 C27.6916306,26.916946 28.0779341,27.205885 28.4083081,27.4535246 C29.6289636,28.3687075 30.9158389,29.3212641 32.5690511,28.6375464 C32.9177139,28.493391 32.6160316,28.0146002 32.26955,28.1579705 C31.3817854,28.5251115 30.2022379,28.1480775 29.4760527,27.6082012 C28.99769,27.2523665 28.5245287,26.7277224 27.9463323,26.5070923 C27.3678004,26.2866193 26.1312051,26.5166713 26.2414416,27.2851862 C26.4216456,28.5397155 28.0990191,28.0398824 28.8054053,27.6304998 C29.9151531,26.9871394 30.4572752,25.7772072 29.7060897,24.6728007 C29.5013887,24.3720843 28.9876228,24.6503451 29.1934983,24.9531029 C29.9542477,26.0714853 28.9783944,27.0849703 27.8607606,27.4535246 Z" id="Fill-9" fill="#C59C2D"></path>
                    <path d="M39.6709169,20.603079 C39.8799804,20.7707892 39.6388694,21.1242684 39.4068191,20.9471362 C39.1464126,20.7486477 39.5103441,20.3471167 39.6932327,20.6233361" id="Fill-11" fill="#FFFFFF"></path>
                    <path d="M43.778259,3.01686877 C43.0671747,2.50039028 42.5401536,1.64959051 42.7025721,0.744143584 C42.9663343,-0.728346157 44.2232319,0.359572039 44.8713958,0.898035015 C45.3559666,1.30050822 45.7277842,1.79170454 46.2185632,2.19245039 C46.6345089,2.53179669 47.0460921,2.8667461 47.4479436,3.21881201 C48.4887307,4.13069725 49.179177,5.23447569 50.0650961,6.25471306 C50.41443,6.6573433 50.8565506,6.959473 51.2162874,7.3536235 C51.4637743,7.62450383 51.6248505,8.08319451 51.8535451,8.3000558 L52.1146227,9.62148069 L47.5967713,8.68808205 L43.778259,3.01686877 Z" id="Fill-13" fill="#FFA000" opacity="0.853020056"></path>
                    <path d="M42.9855292,0.261395587 C42.9786499,0.246948637 42.9709317,0.233129814 42.964388,0.218525832 C42.8757961,0.0249052867 43.1950961,-0.0952242486 43.2835202,0.0983962965 C43.2858692,0.103421323 43.2885538,0.108289317 43.2910706,0.113157311 C43.3083527,0.120694851 43.3254671,0.128860518 43.3425814,0.136712122 C43.6863784,0.0511296427 44.0565181,0.322166999 44.3301798,0.498356984 C44.7231386,0.751178621 45.0608952,1.06822637 45.34798,1.42735872 C45.4056989,1.49990754 45.3875778,1.57732435 45.3377449,1.6289879 C45.3335502,1.71943838 45.2379112,1.80517789 45.1370708,1.79214423 C44.215413,1.67405611 43.4301666,1.12522902 43.0216036,0.334101437 L43.0205969,0.333002212 C43.0004623,0.310389594 42.9895561,0.285892591 42.9855292,0.261395587" id="Fill-15" fill="#EC2227"></path>
                    <path d="M37.8537091,5.34513619 C37.6746796,5.3397971 37.2758482,5.15606958 37.0008442,5.1243491 C36.6199661,5.08053715 36.2397592,5.05446982 35.8572033,5.01348445 C35.1264879,4.93496842 34.4034907,4.8085576 33.8296568,4.32160114 C33.5006251,4.04255515 33.0699141,3.26791594 33.1580027,2.83780509 C33.2519638,2.37974254 34.2999657,2.42371152 34.7481266,2.44443975 C37.3466546,2.56582554 40.0206871,2.52719565 42.5823018,3.0077138 C43.4881876,3.17777953 44.4799807,3.27545348 45.2853616,3.74262389 C45.9501364,4.12813763 46.6259853,4.61839176 47.2248195,5.10848886 C47.8142577,5.59104842 48.2696335,6.1995477 48.8283665,6.71162928 L50.1845944,8.86595228 L47.7008332,9.27517786 L41.0485545,6.83882526 L37.8537091,5.34513619 Z" id="Fill-17" fill="#FFA000" opacity="0.853020056"></path>
                    <g id="Group-23" transform="translate(33.221963, 2.402277)">
                        <path d="M2.94571431,0.476922107 C2.9921915,0.467971278 3.0385009,0.458863418 3.0848103,0.44991259 C2.99655398,0.44080473 2.90812986,0.4362508 2.81937017,0.434680479 C2.82121584,0.441118794 2.82272593,0.447714141 2.82356487,0.454152456 C2.83614894,0.469855663 2.84789408,0.488071384 2.85880028,0.508171489 C2.88732419,0.497493308 2.91618367,0.487286223 2.94571431,0.476922107 M0.330910889,0.238547421 C0.351380988,0.251895147 0.372690025,0.263829585 0.393327911,0.276706214 C0.437959438,0.2286544 0.489805835,0.201958948 0.55641755,0.187826062 C0.580578977,0.163800155 0.614136516,0.146840691 0.659103618,0.142914889 C1.09115693,0.103970935 1.52069342,0.110723314 1.94603523,0.163172026 C2.17573658,0.136319542 2.4059413,0.113706923 2.63782389,0.108367833 C2.82020911,0.104284999 3.16199264,0.0590597624 3.30561891,0.194421409 C3.43565437,0.317220489 3.37038496,0.496394084 3.27491376,0.619350196 C2.97205697,1.00878974 2.24335502,1.04883291 1.78529462,1.03234455 C1.1829368,1.01083115 0.61531103,0.820037184 0.118827245,0.496551116 C-0.0640613414,0.377520805 0.149364605,0.120302271 0.330910889,0.238547421" id="Fill-19" fill="#DA2426"></path>
                        <path d="M2.94571431,0.476922107 C2.9921915,0.467971278 3.0385009,0.458863418 3.0848103,0.44991259 C2.99655398,0.44080473 2.90812986,0.4362508 2.81937017,0.434680479 C2.82121584,0.441118794 2.82272593,0.447714141 2.82356487,0.454152456 C2.83614894,0.469855663 2.84789408,0.488071384 2.85880028,0.508171489 C2.88732419,0.497493308 2.91618367,0.487286223 2.94571431,0.476922107 Z M0.330910889,0.238547421 C0.351380988,0.251895147 0.372690025,0.263829585 0.393327911,0.276706214 C0.437959438,0.2286544 0.489805835,0.201958948 0.55641755,0.187826062 C0.580578977,0.163800155 0.614136516,0.146840691 0.659103618,0.142914889 C1.09115693,0.103970935 1.52069342,0.110723314 1.94603523,0.163172026 C2.17573658,0.136319542 2.4059413,0.113706923 2.63782389,0.108367833 C2.82020911,0.104284999 3.16199264,0.0590597624 3.30561891,0.194421409 C3.43565437,0.317220489 3.37038496,0.496394084 3.27491376,0.619350196 C2.97205697,1.00878974 2.24335502,1.04883291 1.78529462,1.03234455 C1.1829368,1.01083115 0.61531103,0.820037184 0.118827245,0.496551116 C-0.0640613414,0.377520805 0.149364605,0.120302271 0.330910889,0.238547421 Z" id="Stroke-21" stroke="#EC2227" stroke-width="0.617"></path>
                    </g>
                    <path d="M45.4295751,9.40501198 C44.5908044,9.7091831 43.5807225,9.82036181 42.6805415,10.0064448 C41.9281815,10.1622206 41.1855532,10.4048352 40.432522,10.5260639 C39.6440876,10.6531029 38.843237,10.6468216 38.0517824,10.8332187 C37.5813057,10.9440833 37.0151901,11.0386166 36.5873314,11.280446 C36.1250763,11.5414333 35.8458776,11.995099 35.5374838,12.3930182 C34.8178424,13.32202 34.3349494,14.3675395 33.640644,15.3091038 C32.7517048,16.5149531 31.7188037,17.8162779 31.2568842,19.2290954 C31.0322165,19.9167389 30.7516755,20.8892385 30.5001617,21.5619639 C30.4077107,21.8091324 31.2198031,21.6470753 31.4036984,21.6668613 C31.4036984,21.6668613 31.7112533,21.7852635 31.8830679,21.65053 C32.2411268,21.3695996 35.3319439,19.9900729 35.5945317,19.0401859 C35.7606415,18.4392241 37.6828173,15.3847933 38.3237663,15.4620531 C38.902466,15.5317753 39.5063339,15.5080635 40.0900673,15.4295474 C40.797628,15.3348571 41.3717975,15.143435 42.0894255,15.2379683 C42.4109067,15.280367 42.720475,15.4081911 43.0486677,15.4416389 C43.3500144,15.4724172 43.6060585,15.4205966 43.9204926,15.5262792 C46.8722137,16.2115671 42.1771785,19.134091 41.7833807,19.3016443 C41.3117295,19.5020172 40.8845421,19.5002898 40.3712795,19.5456721 C38.7001141,19.6935963 36.7213938,19.408269 35.1473775,20.0615225 C34.3876348,20.3768429 33.2173156,20.9789038 32.5189832,21.4247179 C31.8761886,21.8353568 31.3204757,22.1933899 30.8291934,22.7685984 C30.4457985,23.2175531 30.4313688,23.760884 30.4661008,24.3194471 C30.4870743,24.6548676 30.4781815,24.7607072 30.7815417,24.8461327 C31.0864119,24.9320292 31.5973254,24.7186226 31.8939741,24.6584793 C32.8973445,24.4551228 33.7804111,24.0617575 34.7413312,23.7977866 C35.4762413,23.5958433 36.4839742,23.8463095 37.2490861,23.829507 C37.702784,23.8193 38.0897025,23.9191724 38.5301451,24.0047548 C39.3179084,24.1580181 40.1155711,24.1206445 40.9107169,24.1881683 C41.9739876,24.2786188 43.0186337,24.4530814 44.0329103,24.7641619 C45.6032354,25.2454652 46.9158385,26.1776076 48.3296176,26.9547593 C49.9833331,27.8635039 51.7511443,28.407306 53.5483182,28.9975896 C55.3721705,29.5965099 59.3061207,29.2428737 61.2319879,29.2106821 C69.4435176,29.0739072 73.5088456,29.8249916 76.9343992,29.6147256 C76.9343992,29.6147256 77.1538655,20.475302 76.8746668,19.7889148 C74.8484626,20.4173571 74.9454439,20.401968 72.8100099,20.6285653 C71.0861591,20.8116647 66.102529,21.4127834 64.4389141,20.8438562 C61.4892064,19.8347682 58.8983966,16.9819665 57.0275639,14.6765786 C55.7604312,13.1148947 54.6711535,11.4257007 53.35251,9.90782867 C52.0288329,8.38414648 50.4533064,8.10541455 48.4995865,7.79009415 C46.3215345,7.43849934 44.2892899,6.71803619 42.1989909,6.08394068 C41.1244785,5.75809913 40.143256,5.32186404 38.973608,5.41953799 C38.0423863,5.49742589 37.1573062,5.85137618 36.2197086,5.98281203 C34.4376355,6.23280709 32.8006988,6.89328398 31.07215,7.34600745 C29.8179369,7.67467558 26.6660451,7.8207154 28.7563442,9.43924497 C30.1164312,10.492145 32.7795575,9.61402167 34.464146,9.59863252 C36.5235721,9.57947461 39.1581745,9.17417483 40.9224621,10.4326299" id="Fill-24" fill="#FFA000"></path>
                    <g id="Group-30" transform="translate(28.020545, 7.270271)">
                        <path d="M0.162334594,1.08977117 C0.160992292,1.06323275 0.166864861,1.03747949 0.180120089,1.01439578 C0.180287877,0.982361237 0.19169744,0.949070438 0.219046834,0.917035895 C0.513514236,0.573920818 1.01587059,0.475304676 1.43886337,0.349364954 C1.90816555,0.209763442 2.38149463,0.0629384545 2.87932072,0.131090374 C2.99509422,0.147107645 3.03435655,0.245566755 3.01355087,0.330364074 C3.01438981,0.365068162 3.00398697,0.400400378 2.97831546,0.429765375 C2.32142663,1.18414745 1.28667993,1.53794071 0.279785979,1.33835295 C0.146730338,1.31181452 0.115689615,1.17818023 0.162334594,1.08977117" id="Fill-26" fill="#DA2426"></path>
                        <path d="M0.162334594,1.08977117 C0.160992292,1.06323275 0.166864861,1.03747949 0.180120089,1.01439578 C0.180287877,0.982361237 0.19169744,0.949070438 0.219046834,0.917035895 C0.513514236,0.573920818 1.01587059,0.475304676 1.43886337,0.349364954 C1.90816555,0.209763442 2.38149463,0.0629384545 2.87932072,0.131090374 C2.99509422,0.147107645 3.03435655,0.245566755 3.01355087,0.330364074 C3.01438981,0.365068162 3.00398697,0.400400378 2.97831546,0.429765375 C2.32142663,1.18414745 1.28667993,1.53794071 0.279785979,1.33835295 C0.146730338,1.31181452 0.115689615,1.17818023 0.162334594,1.08977117 Z" id="Stroke-28" stroke="#EC2227" stroke-width="0.617"></path>
                    </g>
                    <path d="M30.4396575,24.4519665 C30.4482146,24.4083116 30.4742217,24.3718801 30.5086182,24.347069 C30.4648256,24.1308359 30.7030841,23.9037675 30.8957044,23.8086061 C31.7608178,23.3810077 32.903452,23.0915976 33.7331621,23.7406112 C33.737189,23.7439089 33.7402092,23.7472065 33.7439005,23.7506612 C33.8469222,23.7963576 33.9304804,23.8682783 33.9685682,23.984482 C34.0068238,24.1008428 33.9155473,24.190194 33.8192372,24.2058972 C33.6695706,24.3351346 33.4954069,24.3940216 33.2846656,24.3963771 C33.2561417,24.4076834 33.2277856,24.4186757 33.2001006,24.4288828 C32.7447248,24.5987915 32.2826375,24.7592782 31.811993,24.8863172 C31.4987334,24.9709575 31.1051035,25.1133856 30.7817766,25.003149 C30.5368065,24.9194509 30.3926769,24.6961513 30.4396575,24.4519665" id="Fill-31" fill="#DA2426"></path>
                    <path d="M43.2066398,0.137936972 C43.2771107,-0.24192361 44.3314885,0.479638761 44.4514567,0.569618139 C44.7726024,0.810819402 45.0197537,1.18816747 45.2798246,1.42936873" id="Fill-33" fill="#EC2227"></path>
                    <g id="Group-39" transform="translate(31.544086, 43.544680)">
                        <path d="M0.348058792,1.59472351 C0.764675635,1.14090082 1.52559283,1.02642444 2.09774886,0.811918626 C2.43751894,0.684565616 2.77040972,0.556270413 3.11487786,0.446504994 C3.26521563,0.39845318 3.53686391,0.273455651 3.67092628,0.333441902" id="Fill-35" fill="#DA2426"></path>
                        <path d="M0.533279627,1.76805551 C0.95425895,1.36809482 1.54386491,1.26539584 2.08732924,1.07648626 C2.52743637,0.923379991 3.19002997,0.521848982 3.6709095,0.57853756 C4.00447143,0.617952611 4.00145125,0.127227385 3.6709095,0.088283431 C3.07710885,0.0184041589 2.33146034,0.480392515 1.78413688,0.658466885 C1.19604102,0.849888981 0.612643206,0.994044424 0.162804399,1.42132869 C-0.0739440366,1.64635565 0.296195616,1.9932395 0.533279627,1.76805551" id="Fill-37" fill="#EC2227"></path>
                    </g>
                    <g id="Group-44" transform="translate(27.684969, 7.113239)">
                        <path d="M3.29956177,0.325072093 C3.2215405,0.149981332 3.0292558,0.280003888 2.90140158,0.316749393 C2.53629556,0.421175721 2.13779978,0.428085132 1.76413659,0.515237932 C1.6208459,0.548842796 0.0683063701,0.965919979 0.407908662,1.29568733" id="Fill-40" fill="#DA2426"></path>
                        <path d="M3.48271882,0.153655883 C3.1843923,-0.156953556 2.73337898,0.118951795 2.36273597,0.175012244 C1.96088444,0.235783656 1.58722125,0.297811325 1.20449752,0.4254784 C0.84190831,0.546393095 -0.217167612,0.886838628 0.184180551,1.41807813 C0.375122947,1.67074273 0.824626178,1.42891334 0.631502542,1.17342216 C0.66153654,1.21315127 0.991910508,1.01984479 1.13218102,0.966453888 C1.30315668,0.901128546 1.48050827,0.844597 1.65769208,0.79607409 C1.84125181,0.745666795 2.02346925,0.711276771 2.21273377,0.681911774 C2.29226513,0.669663272 3.10385421,0.483423234 3.11643828,0.496456896 C3.3397637,0.729021395 3.7052053,0.385278189 3.48271882,0.153655883" id="Fill-42" fill="#EC2227"></path>
                    </g>
                    <path d="M53.8790613,44.0985317 C53.8793969,44.8417645 53.9033906,45.5859395 53.8708397,46.328073 C53.8523831,46.7476627 53.9799017,46.9403411 54.4315862,47.1031834 C55.9858036,47.6634738 57.4232408,48.3878627 58.0722436,49.9746718 C58.2781191,50.4781166 58.4526183,50.9815615 58.4578197,51.527719 C58.4935585,55.3162748 58.1994267,59.0908547 57.9420403,62.8677901 C57.870395,63.9194339 57.9141876,64.9792434 57.8109982,66.0269613 C57.7240841,66.9088535 57.3187091,67.7051631 56.7728957,68.4374037 C55.6260668,69.9750617 53.9270486,70.4665721 52.0597394,70.6446465 C49.4615469,70.8926001 46.9959068,70.3992053 44.642181,69.403465 C43.9477078,69.1095009 43.442499,68.5768481 43.1750454,67.8683194 C42.8195033,66.9272262 42.719334,65.9646196 42.6844342,64.9709207 C42.5694996,61.6853386 42.9411494,58.4047816 42.7921539,55.1243816 C42.7211797,53.5567304 42.7278912,52.0135763 43.1606157,50.5015144 C43.5611249,49.1020446 44.0935153,47.7655446 45.6880017,47.1108779 C46.2519362,46.8794126 46.8383541,46.8575852 47.4155438,46.8085912 C47.8821614,46.7690191 47.9371957,46.592044 47.9293097,46.2289858 C47.9126987,45.45152 47.9373635,44.6734261 47.9452496,43.8958033 C48.1059902,43.7357876 48.2950869,43.8125763 48.4591833,43.8662812 C49.9484668,44.3518244 51.457046,44.3069132 52.9829073,44.0564471 C53.2713343,44.0090234 53.5934867,43.8681656 53.8790613,44.0985317" id="Fill-45" fill="#64D2FF"></path>
                    <path d="M53.8790613,44.0985317 C53.1131105,44.1874118 52.3479986,44.2855569 51.5807055,44.3629737 C50.3290093,44.4895415 49.1318441,44.2227441 47.9452496,43.8958033 C47.9288064,43.8879517 47.9126987,43.879786 47.8960878,43.8722485 C46.452778,43.2018785 46.1804586,43.1458181 46.491537,41.2513832 C46.5499271,40.8953915 46.6378478,40.5436396 46.71201,40.1900034 C47.1891982,40.3134306 47.524438,40.6567027 47.9090074,40.9090533 C48.845095,41.5233627 49.9154127,41.5743982 50.9786833,41.642236 C52.5124306,41.73991 53.9997007,41.5379667 55.3854593,40.8653983 C55.4359633,40.8410584 55.4935145,40.8522077 55.5478777,40.863671 C55.5913348,41.4834766 55.5460321,42.1020259 55.5287499,42.7215174 C55.5134813,43.2769399 55.258444,43.6242948 54.6968586,43.7957738 C54.4186666,43.8808852 54.1513808,43.9966179 53.8790613,44.0985317" id="Fill-47" fill="#612D90"></path>
                    <path d="M53.8790613,44.0985317 C53.1131105,44.1874118 52.3479986,44.2855569 51.5807055,44.3629737 C50.3290093,44.4895415 49.1318441,44.2227441 47.9452496,43.8958033 C47.9288064,43.8879517 47.9126987,43.879786 47.8960878,43.8722485 C46.452778,43.2018785 46.1804586,43.1458181 46.491537,41.2513832 C46.5499271,40.8953915 46.6378478,40.5436396 46.71201,40.1900034 C47.1891982,40.3134306 47.524438,40.6567027 47.9090074,40.9090533 C48.845095,41.5233627 49.9154127,41.5743982 50.9786833,41.642236 C52.5124306,41.73991 53.9997007,41.5379667 55.3854593,40.8653983 C55.4359633,40.8410584 55.4935145,40.8522077 55.5478777,40.863671 C55.5913348,41.4834766 55.5460321,42.1020259 55.5287499,42.7215174 C55.5134813,43.2769399 55.258444,43.6242948 54.6968586,43.7957738 C54.4186666,43.8808852 54.1513808,43.9966179 53.8790613,44.0985317 Z" id="Stroke-49" stroke="#461E8C" stroke-width="0.652"></path>
                    <path d="M55.5478777,40.8636239 C54.6500458,41.5241008 53.559258,41.6520819 52.4874302,41.7835178 C51.5130871,41.9033332 50.5316969,41.7882287 49.5625551,41.6566358 C48.4226055,41.5019593 47.5083304,40.9410407 46.71201,40.1901133 C46.6027802,39.5748617 46.9318119,39.2430529 47.5009477,38.9894461 C48.5836817,38.5067295 49.7227924,38.5593353 50.8639165,38.5968659 C52.1214852,38.6381654 53.3587517,38.8022639 54.5466886,39.2124316 C55.550059,39.5583733 55.7250615,39.8509241 55.5478777,40.8636239" id="Fill-51" fill="#7850FF"></path>
                    <path d="M48.8582232,61.9763819 C48.9267001,62.006532 48.9951769,62.0365251 49.063366,62.0668323 C48.6867434,62.4479492 48.9664051,62.8615716 48.8685811,63.2571354 C48.7897464,63.5757535 48.9241106,63.9072482 48.6835785,64.2175436 C48.7281748,63.470228 48.4594464,62.7155318 48.8582232,61.9763819" id="Fill-53" fill="#7ECAAF"></path>
                    <path d="M57.3227024,57.9965453 C57.1225317,60.2106975 57.3121318,62.4444788 56.9337705,64.6507794 C56.8406484,65.1942674 56.7928289,65.7511031 56.7992048,66.3010294 C56.8052452,66.8231611 56.5582617,67.1766403 56.1676519,67.5021677 C54.6500122,68.7676892 52.8681069,69.3173015 50.8514666,69.3008131 C49.8539688,69.2926474 48.8531152,69.3125905 47.8697115,69.1623108 C46.4448584,68.9446644 45.2188338,68.3649019 44.3354316,67.2480898 C44.086099,66.9332405 44.133583,66.5530659 44.0644544,66.2044547 C43.4766941,63.2469126 43.5530375,60.2578072 43.6161257,57.2701149 C44.9466821,58.4414172 46.6208677,58.7038178 48.3457252,58.8924133 C49.3178871,58.998881 50.2972639,59.023378 51.2628821,59.0367258 C53.009552,59.0609087 54.7468257,58.8236332 56.4445016,58.3930513 C56.7681641,58.3110806 56.9688382,58.0081657 57.3227024,57.9965453" id="Fill-55" fill="#0055FF"></path>
                    <path d="M57.3227024,57.9965453 C56.9498782,58.4970065 56.3565809,58.5788202 55.7867739,58.7035037 C54.4250089,59.0013935 53.0323711,59.2113454 51.6481226,59.1909313 C49.1386899,59.1540287 46.6024111,59.1389536 44.2679809,58.0387869 C43.9001903,57.8654235 43.7342483,57.5994112 43.6161257,57.2699579 C43.506057,56.849426 43.7104224,56.6529789 44.1295561,56.5094516 C46.1388137,55.8218081 48.2205556,55.8593388 50.3036398,55.9513596 C51.4420793,56.0016099 52.5843779,56.0341155 53.7132535,56.2140743 C54.7097447,56.3733048 55.7111016,56.5118071 56.6715184,56.8216313 C57.3879718,57.0527826 57.5248866,57.3074886 57.3227024,57.9965453" id="Fill-57" fill="#0055FF" style="mix-blend-mode: multiply;"></path>
                    <path d="M50.2963578,45.4261436 C51.202747,45.4024318 51.9970539,45.5296278 52.7660249,45.7832346 C53.0437135,45.8749413 53.3593222,45.9886325 53.3197243,46.3377148 C53.2861667,46.6304226 53.0828081,46.808497 52.761998,46.9097827 C51.4470458,47.3254465 50.169007,47.3455467 48.9362708,46.6729783 C48.6923075,46.5398151 48.4733445,46.3887502 48.4728412,46.0809674 C48.47217,45.7270171 48.7976782,45.7017349 49.0290574,45.5883578 C49.456916,45.3795051 49.9245403,45.4203334 50.2963578,45.4261436" id="Fill-59" fill="#64D2FF"></path>
                    <path d="M50.4596992,38.9989779 C51.7043483,38.9389917 52.8404387,39.1054457 53.9161256,39.566963 C54.2285463,39.7010683 54.486436,39.8873084 54.4599256,40.2682682 C54.4322406,40.6603773 54.2139488,40.9058184 53.8313929,41.0385105 C53.7797142,41.0565692 53.7235054,41.0631645 53.6721623,41.0815373 C52.3551967,41.5526335 51.001989,41.5341037 49.6665667,41.231974 C48.9798117,41.0765123 48.3177215,40.7677872 47.9984215,40.0837555 C47.8472448,39.7594843 47.926105,39.5701036 48.2798014,39.3786815 C48.992228,38.9933248 49.7444202,38.945587 50.4596992,38.9989779" id="Fill-61" fill="#612D90"></path>
                    <path d="M50.4596992,38.9989779 C51.7043483,38.9389917 52.8404387,39.1054457 53.9161256,39.566963 C54.2285463,39.7010683 54.486436,39.8873084 54.4599256,40.2682682 C54.4322406,40.6603773 54.2139488,40.9058184 53.8313929,41.0385105 C53.7797142,41.0565692 53.7235054,41.0631645 53.6721623,41.0815373 C52.3551967,41.5526335 51.001989,41.5341037 49.6665667,41.231974 C48.9798117,41.0765123 48.3177215,40.7677872 47.9984215,40.0837555 C47.8472448,39.7594843 47.926105,39.5701036 48.2798014,39.3786815 C48.992228,38.9933248 49.7444202,38.945587 50.4596992,38.9989779 Z" id="Stroke-63" stroke="#461E8C" stroke-width="0.652"></path>
                    <g id="Group-67" transform="translate(0.000000, 41.974359)">
                        <mask id="mask-4" fill="white">
                            <use xlink:href="#path-3"></use>
                        </mask>
                        <g id="Clip-66"></g>
                        <path d="M12.4410883,0.345046572 C12.4414239,1.16930792 12.4681022,1.99482552 12.4320278,2.81783061 C12.4115577,3.28327368 12.552835,3.49699433 13.0540168,3.67758121 C14.7776998,4.29895712 16.3718506,5.10249023 17.0918276,6.8625057 C17.3200189,7.42075471 17.5136459,7.97916076 17.5193507,8.5849905 C17.5591164,12.7868547 17.2327693,16.9733297 16.9473624,21.1624743 C16.8679989,22.3287515 16.9164895,23.5041366 16.8020583,24.666331 C16.7057482,25.6444837 16.2559094,26.5277891 15.6505314,27.339802 C14.3787006,29.0453273 12.494277,29.5903856 10.4231058,29.787775 C7.54151991,30.0628951 4.80691608,29.5156384 2.19630735,28.4112318 C1.42599405,28.0850762 0.865750941,27.4943215 0.568934511,26.708533 C0.174801219,25.6648979 0.0635579783,24.5970798 0.0247990211,23.4948717 C-0.102551838,19.8507854 0.309702525,16.2123523 0.144431647,12.5740762 C0.0655714307,10.8352601 0.0729540892,9.12376754 0.552994681,7.44666501 C0.997296493,5.89456 1.58774139,4.41217724 3.35622368,3.68621797 C3.98156841,3.42947053 4.6320813,3.40513056 5.27219135,3.35079747 C5.78981639,3.30682849 5.85089111,3.11069543 5.84216615,2.70790816 C5.82354171,1.84580209 5.85105889,0.982753818 5.85978385,0.120176645 C6.03814217,-0.0572695967 6.24787679,0.0278417864 6.42975865,0.0873569418 C8.08146071,0.626133982 9.75480737,0.576197783 11.4471141,0.298408047 C11.7670852,0.245802303 12.124473,0.0897124229 12.4410883,0.345046572" id="Fill-65" fill="#64D2FF" mask="url(#mask-4)"></path>
                    </g>
                    <path d="M12.4410883,42.3194054 C11.5914115,42.4180216 10.7430769,42.5268448 9.89205771,42.6127413 C8.50361454,42.752971 7.17591052,42.4571225 5.85978385,42.0945355 C5.84166278,42.0857417 5.82354171,42.0769479 5.80525285,42.0683111 C4.20439047,41.3249213 3.90237262,41.2627366 4.24734412,39.1614904 C4.31227796,38.7667118 4.40976261,38.3766441 4.49197858,37.984221 C5.02118096,38.12131 5.39299849,38.5019557 5.81951481,38.7817869 C6.85778506,39.4631491 8.04505078,39.5196806 9.22426269,39.594899 C10.9254621,39.7034081 12.5749829,39.4794804 14.1119182,38.733421 C14.1677915,38.7064115 14.2317186,38.718817 14.2919544,38.7315366 C14.3401095,39.418866 14.2899409,40.1050962 14.2708131,40.7921115 C14.2538666,41.4081483 13.9709765,41.793348 13.3479808,41.9836708 C13.0395871,42.0780471 12.7431062,42.2064994 12.4410883,42.3194054" id="Fill-68" fill="#612D90"></path>
                    <path d="M12.4410883,42.3194054 C11.5914115,42.4180216 10.7430769,42.5268448 9.89205771,42.6127413 C8.50361454,42.752971 7.17591052,42.4571225 5.85978385,42.0945355 C5.84166278,42.0857417 5.82354171,42.0769479 5.80525285,42.0683111 C4.20439047,41.3249213 3.90237262,41.2627366 4.24734412,39.1614904 C4.31227796,38.7667118 4.40976261,38.3766441 4.49197858,37.984221 C5.02118096,38.12131 5.39299849,38.5019557 5.81951481,38.7817869 C6.85778506,39.4631491 8.04505078,39.5196806 9.22426269,39.594899 C10.9254621,39.7034081 12.5749829,39.4794804 14.1119182,38.733421 C14.1677915,38.7064115 14.2317186,38.718817 14.2919544,38.7315366 C14.3401095,39.418866 14.2899409,40.1050962 14.2708131,40.7921115 C14.2538666,41.4081483 13.9709765,41.793348 13.3479808,41.9836708 C13.0395871,42.0780471 12.7431062,42.2064994 12.4410883,42.3194054 Z" id="Stroke-70" stroke="#461E8C" stroke-width="0.652"></path>
                    <path d="M14.2919376,38.7315523 C13.2961177,39.4641069 12.0863684,39.6059069 10.8974248,39.7516327 C9.81687204,39.8846388 8.72843327,39.7569718 7.65341752,39.6109319 C6.38930504,39.4394529 5.37519622,38.8174489 4.4919618,37.9845508 C4.37065129,37.3020894 4.73575732,36.9341632 5.36697462,36.6527618 C6.56783114,36.1174394 7.83127248,36.1758554 9.09689505,36.2171548 C10.4917141,36.2631652 11.8638819,36.4451654 13.1816864,36.9000873 C14.2942866,37.2838737 14.488417,37.6083019 14.2919376,38.7315523" id="Fill-72" fill="#7850FF"></path>
                    <path d="M6.84806182,62.1480493 C6.91654744,62.1813401 6.98503307,62.2147879 7.05325927,62.2483928 C6.67658835,62.6711231 6.95623798,63.1299709 6.85843843,63.5685614 C6.7795762,63.9220406 6.91395329,64.2898097 6.67347537,64.633867 C6.71809479,63.8050517 6.4493406,62.9679138 6.84806182,62.1480493" id="Fill-74" fill="#7ECAAF"></path>
                    <path d="M16.2604732,57.7339249 C16.0384901,60.1897495 16.248728,62.6672445 15.829091,65.1142752 C15.7259016,65.7169643 15.6728807,66.3347285 15.67976,66.944484 C15.6866393,67.5237754 15.412642,67.9158844 14.9794141,68.2767441 C13.296168,69.6804538 11.3197967,70.2898953 9.08301901,70.2718366 C7.97679474,70.2627288 6.86671136,70.2847132 5.77609135,70.1182593 C4.19569907,69.8765869 2.8359476,69.2338546 1.85589968,67.9950286 C1.57955335,67.6459463 1.63223868,67.2243152 1.55555971,66.8375452 C0.90353673,63.5571452 0.988269515,60.2418841 1.05823698,56.9281933 C2.53392975,58.2273196 4.39083615,58.5184571 6.30395144,58.7276238 C7.38215516,58.8455549 8.46858047,58.8728785 9.53940153,58.8876395 C11.4766782,58.914492 13.4035521,58.6513062 15.2864656,58.1739287 C15.6453635,58.0828501 15.8680178,57.7466445 16.2604732,57.7339249" id="Fill-76" fill="#0055FF"></path>
                    <path d="M16.2604732,57.7339249 C15.8468765,58.2890332 15.188981,58.3797978 14.5570925,58.5183001 C13.0464999,58.8486956 11.5020142,59.0814171 9.966589,59.0584904 C7.18349453,59.0178191 4.37053384,59.0010167 1.78123416,57.7807204 C1.37334227,57.5886702 1.18927917,57.2936069 1.05823698,56.9281933 C0.93625533,56.461651 1.16276872,56.2436905 1.62754063,56.084617 C3.85626456,55.3220693 6.16502323,55.3633687 8.47545977,55.4655966 C9.73806216,55.521343 11.0051948,55.5573033 12.2570588,55.7570481 C13.3624441,55.9337092 14.4730309,56.0872866 15.5383149,56.4308727 C16.3327897,56.6871491 16.4848053,56.9698068 16.2604732,57.7339249" id="Fill-78" fill="#0055FF" style="mix-blend-mode: multiply;"></path>
                    <path d="M8.46745629,43.7918795 C9.47267237,43.7656551 10.3535578,43.9065129 11.2065904,44.1879143 C11.5146486,44.2896711 11.8646537,44.4156108 11.8206934,44.803009 C11.7836123,45.1274372 11.5579378,45.3249836 11.2020601,45.4374185 C9.74364949,45.8984647 8.32617906,45.9207633 6.95887714,45.1747039 C6.68840338,45.0270937 6.4454468,44.8595405 6.44494344,44.5179958 C6.4441045,44.1255726 6.80518361,44.0974639 7.06189878,43.9718382 C7.53640238,43.7402159 8.05486636,43.7854411 8.46745629,43.7918795" id="Fill-80" fill="#64D2FF"></path>
                    <path d="M8.64861667,36.6633928 C10.0291738,36.5968112 11.2890916,36.7813239 12.4822299,37.2934055 C12.8287115,37.4421149 13.1147895,37.6486121 13.0852589,38.0711854 C13.0547215,38.5060072 12.8126039,38.7783008 12.3882688,38.9254398 C12.3308854,38.9453829 12.2686362,38.9529204 12.2115883,38.9731776 C10.7508287,39.4956233 9.25013555,39.4752091 7.76890579,39.1401027 C7.00714966,38.9676815 6.27291071,38.6251945 5.91871089,37.8664155 C5.75109099,37.5069691 5.83850837,37.2967032 6.230796,37.0845528 C7.02090825,36.6571115 7.85514866,36.6041917 8.64861667,36.6633928" id="Fill-82" fill="#612D90"></path>
                    <path d="M8.64861667,36.6633928 C10.0291738,36.5968112 11.2890916,36.7813239 12.4822299,37.2934055 C12.8287115,37.4421149 13.1147895,37.6486121 13.0852589,38.0711854 C13.0547215,38.5060072 12.8126039,38.7783008 12.3882688,38.9254398 C12.3308854,38.9453829 12.2686362,38.9529204 12.2115883,38.9731776 C10.7508287,39.4956233 9.25013555,39.4752091 7.76890579,39.1401027 C7.00714966,38.9676815 6.27291071,38.6251945 5.91871089,37.8664155 C5.75109099,37.5069691 5.83850837,37.2967032 6.230796,37.0845528 C7.02090825,36.6571115 7.85514866,36.6041917 8.64861667,36.6633928 Z" id="Stroke-84" stroke="#461E8C" stroke-width="0.652"></path>
                    <path d="M34.7770365,34.8797754 C34.7775398,35.9050378 34.8104262,36.9315565 34.7656269,37.9549345 C34.7401232,38.5335977 34.9159647,38.79961 35.5389604,39.0241659 C37.6827837,39.7967637 39.6653631,40.7959588 40.5605105,42.9849859 C40.844575,43.6790676 41.0851826,44.3734634 41.0922297,45.1269033 C41.1413915,50.3521455 40.7358486,55.5587009 40.3808098,60.7677688 C40.2821507,62.218117 40.3425543,63.6799286 40.2002703,65.1252518 C40.0804699,66.3414652 39.5212335,67.4400616 38.7682023,68.4499348 C37.1864677,70.57081 34.8431448,71.2485604 32.2674359,71.4943156 C28.6841619,71.8364885 25.283441,71.1559115 22.0369169,69.7823519 C21.0790169,69.3770522 20.3821946,68.6422991 20.0130617,67.6649315 C19.5227861,66.3673755 19.3843612,65.0390412 19.3365417,63.6686223 C19.1778146,59.1369907 19.6907416,54.6119545 19.4852016,50.0875465 C19.386878,47.9253719 19.3964419,45.7968021 19.993095,43.7112592 C20.5456199,41.781178 21.279691,39.9377785 23.4792199,39.0348441 C24.2570836,38.7155979 25.0659881,38.6852907 25.8619729,38.6177669 C26.5054387,38.5631197 26.5814466,38.3190919 26.5707082,37.8181596 C26.5477212,36.7461016 26.5817821,35.6729444 26.5925206,34.6002584 C26.8143359,34.3793142 27.0752457,34.4854679 27.3014236,34.559273 C29.3554805,35.2291718 31.4363835,35.1673012 33.5409445,34.8218306 C33.9387691,34.7565053 34.3832387,34.5620996 34.7770365,34.8797754" id="Fill-86" fill="#64D2FF"></path>
                    <path d="M41.2522991,77.6279569 C40.3267822,77.7355239 39.4026076,77.8540831 38.4755806,77.9476742 C36.9634779,78.1003094 35.517148,77.7779226 34.0834021,77.3831439 C34.063771,77.373565 34.0443076,77.363986 34.0241731,77.3545641 C32.2806912,76.5449067 31.9516595,76.4770689 32.3275039,74.1884835 C32.3981425,73.7583726 32.5041844,73.3334438 32.593783,72.9060025 C33.1701337,73.055183 33.575341,73.4697477 34.0397773,73.7747039 C35.1706664,74.5168375 36.4638061,74.5787082 37.7482209,74.6605219 C39.601436,74.77861 41.3981066,74.5345821 43.0721245,73.7220982 C43.1330314,73.6925762 43.2026633,73.706395 43.2684361,73.7198997 C43.3207858,74.4687857 43.266087,75.2161013 43.2452814,75.9643592 C43.2268247,76.6356713 42.9189343,77.055261 42.2404009,77.2625433 C41.9043221,77.3649282 41.581163,77.5050008 41.2522991,77.6279569" id="Fill-88" fill="#612D90"></path>
                    <path d="M41.2522991,77.6279569 C40.3267822,77.7355239 39.4026076,77.8540831 38.4755806,77.9476742 C36.9634779,78.1003094 35.517148,77.7779226 34.0834021,77.3831439 C34.063771,77.373565 34.0443076,77.363986 34.0241731,77.3545641 C32.2806912,76.5449067 31.9516595,76.4770689 32.3275039,74.1884835 C32.3981425,73.7583726 32.5041844,73.3334438 32.593783,72.9060025 C33.1701337,73.055183 33.575341,73.4697477 34.0397773,73.7747039 C35.1706664,74.5168375 36.4638061,74.5787082 37.7482209,74.6605219 C39.601436,74.77861 41.3981066,74.5345821 43.0721245,73.7220982 C43.1330314,73.6925762 43.2026633,73.706395 43.2684361,73.7198997 C43.3207858,74.4687857 43.266087,75.2161013 43.2452814,75.9643592 C43.2268247,76.6356713 42.9189343,77.055261 42.2404009,77.2625433 C41.9043221,77.3649282 41.581163,77.5050008 41.2522991,77.6279569 Z" id="Stroke-90" stroke="#461E8C" stroke-width="0.652"></path>
                    <path d="M43.2902988,73.9701304 C42.2055514,74.7684814 40.8877468,74.9226869 39.5927614,75.0816034 C38.4155629,75.2260729 37.2299751,75.0870995 36.0593203,74.9283401 C34.682119,74.7413149 33.5775726,74.0640355 32.6156457,73.1565472 C32.483429,72.4131574 32.8810859,72.0122545 33.568512,71.7058849 C34.8765849,71.1228248 36.2527796,71.1862658 37.6313232,71.231648 C39.150473,71.2814272 40.6452936,71.4802298 42.0805495,71.9753519 C43.2926478,72.3933713 43.5040603,72.7465364 43.2902988,73.9701304" id="Fill-92" fill="#7850FF"></path>
                    <path d="M29.8355379,36.7110207 C31.0855562,36.6780439 32.1808743,36.8534487 33.2416281,37.2034732 C33.6248551,37.3298841 34.060432,37.4867591 34.0053976,37.9685335 C33.9594238,38.3719489 33.678715,38.617547 33.2360911,38.7573056 C31.4224739,39.3307867 29.6598642,39.3584244 27.9593359,38.4306789 C27.6229216,38.2471084 27.3210715,38.0387268 27.3200648,37.6141121 C27.3192258,37.1260564 27.7682257,37.0910383 28.0873579,36.9351054 C28.677635,36.6467945 29.3224431,36.7031691 29.8355379,36.7110207" id="Fill-94" fill="#64D2FF"></path>
                    <path d="M37.1432121,71.7174896 C38.6469254,71.6449408 40.0192609,71.8460988 41.3189444,72.4038768 C41.6961311,72.5656198 42.0078807,72.7908038 41.9756654,73.2509078 C41.9426113,73.7248306 41.6786812,74.0211501 41.2165939,74.1814798 C41.1540091,74.2031502 41.0862229,74.2113159 41.0241414,74.2336145 C39.4330107,74.8025417 37.798423,74.7802431 36.1851443,74.4153006 C35.3554342,74.2276473 34.5552547,73.854539 34.1695108,73.0280793 C33.9869578,72.6364413 34.0820934,72.4076455 34.5096164,72.1763373 C35.3701995,71.7107372 36.2789377,71.6531064 37.1432121,71.7174896" id="Fill-96" fill="#612D90"></path>
                    <path d="M37.1432121,71.7174896 C38.6469254,71.6449408 40.0192609,71.8460988 41.3189444,72.4038768 C41.6961311,72.5656198 42.0078807,72.7908038 41.9756654,73.2509078 C41.9426113,73.7248306 41.6786812,74.0211501 41.2165939,74.1814798 C41.1540091,74.2031502 41.0862229,74.2113159 41.0241414,74.2336145 C39.4330107,74.8025417 37.798423,74.7802431 36.1851443,74.4153006 C35.3554342,74.2276473 34.5552547,73.854539 34.1695108,73.0280793 C33.9869578,72.6364413 34.0820934,72.4076455 34.5096164,72.1763373 C35.3701995,71.7107372 36.2789377,71.6531064 37.1432121,71.7174896 Z" id="Stroke-98" stroke="#461E8C" stroke-width="0.652"></path>
                    <path d="M27.1613544,68.5162966 C25.4448863,68.9674497 22.8389756,68.8598827 21.6530522,67.6480662 C19.9340673,65.8921336 19.7055404,63.1057565 20.8778731,61.0134612 C20.9272026,60.9258373 21.5919775,60.2948824 21.5458359,60.2308133 C22.1676571,59.876392 22.849714,59.631736 23.6002284,59.5587161 C24.7509164,59.4467522 25.8470734,59.7798172 26.9113507,60.1447598 C27.8019678,60.4503442 28.6801686,60.8572143 29.3590376,61.4886402 C30.0538464,62.1349842 30.3259981,63.0021153 30.3112328,63.9017521 C30.2803598,65.786137 29.2444386,67.9688828 27.1613544,68.5162966" id="Fill-100" fill="#D29100"></path>
                    <path d="M27.8907275,67.7937606 C26.1742594,68.2449137 23.5683487,68.1375038 22.3824253,66.9256873 C20.6634404,65.1695976 19.9859137,58.5536794 24.3294337,58.5833585 C25.4802895,58.4712376 26.5764465,58.8044596 27.6407238,59.1694022 C28.5313409,59.4748295 29.4095417,60.1346783 30.0884107,60.7661043 C30.7832195,61.4126053 31.0553712,62.2795794 31.0406059,63.1792161 C31.0097329,65.063758 29.9738117,67.2463468 27.8907275,67.7937606" id="Fill-102" fill="#FFD700"></path>
                    <path d="M23.1550037,61.7756792 C24.9550301,61.9320831 26.7567344,61.8917259 28.5617944,61.8882712 C28.9139807,61.887486 28.9146519,61.3754044 28.5617944,61.3760325 C26.7567344,61.3794872 24.9550301,61.4198445 23.1550037,61.2634405 C22.8044952,61.2329763 22.8066765,61.745372 23.1550037,61.7756792" id="Fill-104" fill="#C59C2D"></path>
                    <path d="M23.4853441,63.1250086 C25.1024819,63.122025 26.7337139,63.0645513 28.3389388,63.2845532 C28.6834069,63.3316629 28.8322346,62.8382681 28.4844107,62.7905303 C26.8278428,62.563619 25.1544961,62.6096294 23.4853441,62.61277 C23.1331578,62.6133982 23.1324866,63.1256368 23.4853441,63.1250086" id="Fill-106" fill="#C59C2D"></path>
                    <path d="M24.5784139,64.544186 C24.3500548,64.6575632 23.9337735,64.8668869 23.678904,64.6558358 C23.4099404,64.4331643 23.5923256,64.1222408 23.8824305,64.0784289 C24.2802551,64.0184426 24.5044195,64.2613712 24.7792557,64.5066553 C25.8072909,65.4246648 27.1093234,66.5461879 28.6398828,65.817088 C28.9538135,65.6675934 28.6771316,65.2253911 28.3637042,65.3747286 C27.4459055,65.8119059 26.3816282,65.269046 25.7232293,64.6644726 C25.3482238,64.3202583 24.9641578,63.8411534 24.4780768,63.6272757 C23.8681685,63.3585939 22.7654678,63.7453639 22.9540612,64.4892248 C23.2557435,65.6785857 24.6191863,65.1931996 25.3243979,64.6988626 C26.3502519,63.9794987 26.6878407,62.7489954 26.0646772,61.6715983 C25.8968896,61.3815601 25.4240638,61.6398778 25.5920193,61.9300731 C26.1967262,62.9754356 25.6143351,64.03022 24.5784139,64.544186 Z" id="Fill-108" fill="#C59C2D"></path>
                    <path d="M24.7665526,64.3844569 L25.2662289,64.0995295 C25.2662289,64.0995295 25.7838474,64.0202467 25.6799632,64.3844569 C25.576079,64.748667 24.9526921,64.8902872 24.9526921,64.8902872 L24.7665526,64.3844569 Z" id="Path-2" fill="#C59C2D"></path>
                    <path d="M35.3718103,69.1621067 C33.834875,69.5661502 31.5012838,69.4698895 30.4393554,68.3847979 C28.9002389,66.8122787 28.6955379,64.3173532 29.7453855,62.4439606 C29.7893459,62.3652875 30.3848244,61.8004431 30.3433809,61.7429694 C30.9001005,61.4256076 31.5110154,61.2067049 32.1830052,61.1413795 C33.2133894,61.040879 34.1949474,61.3392399 35.1479815,61.6661807 C35.9453086,61.9397306 36.7317295,62.3038879 37.3396243,62.8692034 C37.9617811,63.4481807 38.2055766,64.2245472 38.1923214,65.0301217 C38.1646364,66.7174314 37.2371061,68.6720096 35.3718103,69.1621067" id="Fill-110" fill="#D29100"></path>
                    <path d="M36.0249574,68.5150874 C34.4878544,68.9191309 32.1544309,68.8228703 31.0925026,67.7377787 C29.5533861,66.1654165 28.946498,60.2412246 32.8361523,60.267763 C33.8665365,60.1672625 34.8480945,60.4656234 35.8009609,60.7925642 C36.5984558,61.066114 37.3848767,61.6568687 37.9927715,62.2223412 C38.6147605,62.8011614 38.8587238,63.577685 38.8453008,64.3832595 C38.8177836,66.0705691 37.8900854,68.0251474 36.0249574,68.5150874" id="Fill-112" fill="#FFD700"></path>
                    <path d="M31.7842913,63.1530232 C33.3963954,63.2919966 35.0093385,63.2572925 36.6259729,63.2538378 C36.9781593,63.2530526 36.9786627,62.740814 36.6259729,62.7415991 C35.0093385,62.7450538 33.3963954,62.7797579 31.7842913,62.6407846 C31.4337828,62.6106344 31.435964,63.12303 31.7842913,63.1530232" id="Fill-114" fill="#C59C2D"></path>
                    <path d="M32.0800842,64.361385 C33.5254074,64.3585584 34.983818,64.30768 36.4185706,64.503342 C36.7632065,64.5502945 36.9118664,64.0567427 36.5640425,64.0093191 C35.0779469,63.8067477 33.5775894,63.8461627 32.0800842,63.8491463 C31.7278978,63.8497745 31.7272267,64.3620131 32.0800842,64.361385" id="Fill-116" fill="#C59C2D"></path>
                    <path d="M33.9417893,63.2779893 C34.4768643,64.2201817 33.9352456,65.2097978 32.9610702,65.6245195 C32.8103969,65.6887457 32.4330424,65.8559848 32.2736441,65.6863902 C32.1041785,65.5061174 32.3095506,65.2430886 32.4961306,65.2071283 C32.8306992,65.1425881 33.1204686,65.5010923 33.335069,65.6976965 C34.2295452,66.5174039 35.402549,67.3752701 36.7101185,66.7683412 C37.0257271,66.6218302 36.7487096,66.179942 36.4337721,66.3259818 C35.5515445,66.7355215 34.6149535,66.1676935 34.006052,65.602378 C33.6874232,65.3065296 33.3194648,64.8473678 32.8706327,64.7157749 C32.2793489,64.5424115 31.3867183,64.9425293 31.5855467,65.6042624 C31.8929338,66.6274834 33.0850654,66.224068 33.7204774,65.7828079 C34.6684778,65.1245294 34.9782139,64.0122713 34.4144473,63.0195145 C34.2490086,62.72822 33.7763507,62.9866948 33.9417893,63.2779893" id="Fill-118" fill="#C59C2D"></path>
                    <path d="M33.155049,65.5294339 L33.6139935,65.1983185 C33.6139935,65.1983185 34.2460377,65.1725463 34.0514801,65.5055494 C33.8569226,65.8385525 33.3004567,65.9890762 33.3004567,65.9890762 L33.155049,65.5294339 Z" id="Path-2" fill="#C59C2D"></path>
                    <path d="M32.7208486,63.3505067 C31.3860975,63.7013164 29.3597255,63.6176183 28.4375644,62.6754258 C27.1009676,61.3098749 26.9231126,59.1433034 27.834871,57.5161371 C27.8731266,57.4479852 28.3900804,56.957417 28.3541739,56.9077948 C28.8375702,56.6320465 29.3681149,56.4418807 29.9516805,56.3850351 C30.8464923,56.2978823 31.6988538,56.5569852 32.5265505,56.8408992 C33.2190103,57.0784887 33.9019062,57.3945943 34.4297663,57.8857906 C34.9700426,58.3884503 35.1816229,59.0625889 35.1702134,59.7623239 C35.1462197,61.2275901 34.3408388,62.9246357 32.7208486,63.3505067" id="Fill-120" fill="#D29100"></path>
                    <path d="M33.2880381,62.788646 C31.9531192,63.1394556 29.926915,63.0559145 29.0047539,62.1135651 C27.6679893,60.7481712 27.141136,55.6034865 30.51887,55.6265702 C31.4136818,55.5392603 32.2660433,55.7983633 33.09374,56.0824343 C33.7861998,56.3198668 34.4690957,56.8328905 34.9969558,57.3239298 C35.5372322,57.8265895 35.7488124,58.5008852 35.7372351,59.2003061 C35.7134092,60.6657294 34.9078605,62.363089 33.2880381,62.788646" id="Fill-122" fill="#FFD700"></path>
                    <path d="M29.6053835,58.1659201 C31.0057396,58.2851074 32.4057601,58.2566846 33.8099753,58.253387 C34.1619939,58.2524448 34.162665,57.7402062 33.8099753,57.7411483 C32.4057601,57.744446 31.0057396,57.7728688 29.6053835,57.6536815 C29.2547072,57.6238454 29.2568885,58.136241 29.6053835,58.1659201" id="Fill-124" fill="#C59C2D"></path>
                    <path d="M29.8622497,59.2152084 C31.1142814,59.2126959 32.3773872,59.1687269 33.6203584,59.3373794 C33.9648266,59.3840179 34.1136543,58.8904661 33.7658304,58.8433565 C32.4713483,58.6677946 31.1666312,58.7003002 29.8622497,58.7029698 C29.5100633,58.703755 29.5093922,59.2159936 29.8622497,59.2152084" id="Fill-126" fill="#C59C2D"></path>
                    <path d="M31.4480447,58.2577682 C31.8552655,58.991422 31.4159973,60.1781134 30.4357816,60.318186 C29.9649693,60.3853957 29.7637919,59.906919 30.2867861,59.9387965 C30.5594411,59.9552849 30.8044111,60.2531747 30.988642,60.4235545 C31.7638212,61.1404059 32.7816213,61.8038664 33.9012686,61.3008927 C34.2185551,61.1581505 33.9413698,60.7164193 33.6249223,60.8585333 C32.1155042,61.5365978 31.6621418,59.7458041 30.5362864,59.4476002 C29.9965134,59.304544 29.2069045,59.6880163 29.404055,60.2779858 C29.7074152,61.1864163 30.7403162,60.8382762 31.3265664,60.4282655 C32.1603035,59.8453624 32.4046024,58.8711354 31.9207027,57.9992934 C31.7582842,57.7065856 31.285794,57.9653744 31.4480447,58.2577682" id="Fill-128" fill="#C59C2D"></path>
                    <path d="M30.7555474,60.1411521 L31.2552238,59.8562247 C31.2552238,59.8562247 31.7728422,59.7769419 31.6689581,60.1411521 C31.5650739,60.5053622 30.9416869,60.6469824 30.9416869,60.6469824 L30.7555474,60.1411521 Z" id="Path-2" fill="#C59C2D"></path>
                    <path d="M24.3034434,23.5655361 C22.8972147,23.3158551 21.6515589,22.6286828 20.3069083,22.1996712 C19.9765343,22.0941456 19.834586,22.5833005 20.1629465,22.6880409 C21.508436,23.1173666 22.7517428,23.8039108 24.1594815,24.0540629 C24.4999228,24.1145202 24.6457303,23.6263075 24.3034434,23.5655361" id="Fill-130" fill="#F89E1B"></path>
                    <path d="M23.7313712,26.5706118 C22.4459497,26.8000356 21.1997905,27.1731438 19.9489333,27.5269371 C19.6163781,27.6208423 19.7581587,28.1099972 20.0928951,28.0153068 C21.3435846,27.6615136 22.5897438,27.2885624 23.8753331,27.0591386 C24.2169488,26.9980531 24.0723158,26.5098404 23.7313712,26.5706118" id="Fill-132" fill="#F89E1B"></path>
                    <path d="M24.0235232,29.942797 C22.8936408,30.6583922 21.7199659,31.3549864 20.4484708,31.8296944 C20.1288352,31.9490388 20.2682668,32.4391359 20.5924326,32.3180641 C21.910405,31.8260827 23.1248523,31.1222649 24.2966815,30.3801313 C24.5835985,30.1984452 24.3131247,29.7593836 24.0235232,29.942797" id="Fill-134" fill="#F89E1B"></path>
                    <path d="M28.25453,27.2951338 L28.7542064,27.0102065 C28.7542064,27.0102065 29.2718248,26.9309237 29.1679407,27.2951338 C29.0640565,27.659344 28.4406695,27.8009642 28.4406695,27.8009642 L28.25453,27.2951338 Z" id="Path-2" fill="#C59C2D"></path>
                </g>
            </g>
        </g>
    </g>
</svg>