<?xml version="1.0" encoding="UTF-8" standalone="no"?>
<svg width="400px" height="400px" viewBox="0 0 400 400" version="1.1" xmlns="http://www.w3.org/2000/svg" xmlns:xlink="http://www.w3.org/1999/xlink">
    <!-- Generator: Sketch 46.2 (44496) - http://www.bohemiancoding.com/sketch -->
    <title>Every medicine</title>
    <desc>Created with Sketch.</desc>
    <defs></defs>
    <g id="Home-Pages" stroke="none" stroke-width="1" fill="none" fill-rule="evenodd">
        <g id="Order-home-page_new-copy" transform="translate(-760.000000, -460.000000)" fill-rule="nonzero">
            <g id="Layer_1" transform="translate(850.000000, 550.000000)">
                <path d="M80,103.216469 L76.7741935,55.885505 C77.0387097,42.9725191 85.3612903,32.0764066 105.845161,31.2584177 C120.612903,30.6652196 136.122581,35.267188 137.535484,49.429012 C138.322581,57.3216689 144.703226,122.535995 144.703226,122.535995 C144.703226,122.535995 105.354839,137.584494 94.8387097,130.503582 C84.3225806,123.42267 80,103.216469 80,103.216469 Z" id="Shape" fill="#FFC534"></path>
                <path d="M88.5419355,19.6130024 C87.8967742,15.3357319 86.5548387,7.74904042 87.0129032,6.50020232 C87.6580645,4.75182898 89.4322581,3.52172345 90.9419355,2.75368801 C93.8129032,1.26757067 103.167742,-0.680616765 119.825806,1.15517524 C119.825806,1.15517524 121.845161,1.43616382 122.619355,7.24326099 C123.051613,10.4715075 123.548387,14.4428126 123.116129,18.1331292 C122.877419,20.1624911 122.174194,20.1312702 120.535484,20.9742359 C119.974194,21.2677129 118.367742,21.8359342 117.748387,21.6610969 C117.341935,21.5424572 117.748387,19.7878397 117.4,19.6692001 C110.089051,17.6204806 102.290491,17.9073289 95.1612903,20.4871891 C95.27725,20.8683198 95.27725,21.2737219 95.1612903,21.6548527 C94.1612903,22.0170157 92.0774194,22.0170157 90.6064516,21.8109574 C89.9483871,21.698562 88.8,21.3613757 88.5419355,19.6130024 L88.5419355,19.6130024 Z" id="Shape" fill="#01BCF1"></path>
                <path d="M119.090323,32.6758489 C118,32.7382908 117.8,34.8675598 115.490323,35.9665373 C110.729032,38.2144459 107.677419,37.9771667 102.916129,37.5026082 C98.5096774,37.0655148 96.0967742,35.3920718 95.9225806,31.3458363 L95.2258065,20.1999563 C97.4709677,18.3828969 107.335484,16.422221 114.548387,18.4890481 C115.987097,18.7950134 117.948387,19.1134671 118.019355,19.7753513 C118.348387,23.2159003 118.612903,29.759812 119.090323,32.6758489 L119.090323,32.6758489 Z" id="Shape" fill="#FFC534" style="mix-blend-mode: multiply;"></path>
                <polygon id="Shape" fill="#8CE6F4" points="78.4903226 59.3385424 46.6774194 69.1419215 48.0903226 73.8188202 77.7096774 67.1250479"></polygon>
                <path d="M120.129032,80.1691619 C119.909677,78.8016842 119.187097,78.1522884 119.483871,76.2290777 C119.696774,74.9302861 118.587097,74.2684019 118.883871,72.5387611 C119.077419,71.4085626 118.529032,70.3532944 118.367742,69.4166659 L117.832258,66.1571984 C117.477419,64.0091969 116.141935,62.5917656 113.019355,62.5917656 C111.483871,62.5917656 109.978495,62.6021726 108.503226,62.6229866 C107.705717,62.565154 106.904364,62.5797877 106.109677,62.6666959 C102.883871,63.3223359 101.354839,62.1421839 98.3677419,62.9476845 C96.2645161,63.5159058 94.4,62.5855214 92.0322581,63.3535569 C90.0967742,63.9779759 88.0387097,63.684499 86.1483871,63.8843131 C81.5741935,64.3588716 77.116129,64.1278365 73.5677419,65.5952213 C71.8774194,66.2883264 70.7612903,65.8574773 69.5354839,66.3382799 C67.9419355,66.962699 66.5741935,66.6317569 65.3483871,67.2311992 C64.7483871,67.5246761 64.3935484,67.3373504 63.9935484,67.5496529 C63.0709677,68.0366998 62.5741935,67.8993276 61.8967742,68.0741649 C53.4,70.2846083 47.7419355,72.763552 44.5806452,74.699251 C42.1741935,76.17288 41.5612903,77.8650556 41.5806452,80.5125924 C41.5806452,82.6980591 42.2258065,85.2394446 42.5548387,88.005621 C42.8451613,90.2722622 43.1419355,92.6700313 43.4451613,95.0927772 C44.9290323,107.081623 46.4193548,119.669911 46.4193548,119.669911 L62.8645161,155.449123 L124.845161,155.449123 L126.135484,122.354913 C124.903226,110.928044 122.219355,93.3006945 120.129032,80.1691619 L120.129032,80.1691619 Z" id="Shape" fill="#445AA8"></path>
                <path d="M46.4516129,71.1837718 C46.4516129,71.1837718 42.6322581,56.5910986 43.0967742,54.7927717 C43.3681107,53.1473931 44.4449413,51.7306389 45.9870968,50.9900597 C49.0580645,49.1792444 63.283871,41.9984253 102.490323,43.1223796 C102.490323,43.1223796 106.2,42.8913446 106.896774,47.3809176 C107.593548,51.8704905 108.522581,60.6310898 108.522581,60.6310898 C108.522581,60.6310898 70.6709677,59.5008913 46.4516129,71.1837718 L46.4516129,71.1837718 Z" id="Shape" fill="#FF6E00"></path>
                <path d="M120.43871,81.8675817 C120.43871,81.8675817 125.03871,112.101952 126.174194,122.33618 L130.245161,150.435038 L101.812903,155.43039 C101.812903,155.43039 92.7290323,91.9332168 92.0774194,89.2919242 C91.283871,86.1011429 97.4967742,85.0833398 97.4967742,85.0833398 L120.43871,81.8675817 Z" id="Shape" fill="#14BEF0"></path>
                <path d="M121.341935,98.4459075 C120.516129,98.9079776 119.296774,98.7081635 118.36129,99.0703266 C116.210807,99.7702016 114.002905,100.29242 111.76129,100.631374 C109.6,101.031002 107.6,101.711619 105.4,101.786549 C105.045161,101.786549 102.509677,101.493072 102.658065,102.379748 C102.573227,102.082273 102.256419,101.906662 101.948387,101.986364 C100.834184,102.3917 99.6649211,102.637807 98.4774194,102.716934 C98.1567379,102.716934 97.8967742,102.96854 97.8967742,103.278911 C97.8967742,103.589282 98.1567379,103.840888 98.4774194,103.840888 C99.6039155,103.78857 100.716596,103.578236 101.780645,103.216469 C102.116421,103.514283 102.580892,103.635402 103.025806,103.541167 C103.354839,103.541167 104.019355,103.085341 104.36129,103.016655 C104.903774,102.959503 105.451065,102.959503 105.993548,103.016655 C107.066511,102.916334 108.122137,102.685563 109.135484,102.329794 C111.903226,101.530538 114.941935,101.543026 117.658065,100.681328 C118.387053,100.345275 119.13688,100.053319 119.903226,99.8071411 C120.729032,99.6510363 121.193548,99.838362 121.935484,99.4137571 C122.211626,99.2551228 122.302613,98.9098638 122.13871,98.6425996 C121.974806,98.3753353 121.618078,98.2872733 121.341935,98.4459075 L121.341935,98.4459075 Z M106.348387,108.617694 C105.703226,108.673892 104.677419,108.580229 104.064516,108.854973 C103.864516,108.942392 103.76129,109.098497 103.580645,109.204648 C103.297197,109.341734 102.987442,109.420404 102.670968,109.435683 C102.096774,109.541834 102.077419,109.710427 101.612903,109.99766 C100.967742,110.391044 100.483871,110.060102 99.8,110.166253 C99.116129,110.272404 99.3741935,111.352649 100.109677,111.246498 C100.632258,111.171568 101.070968,111.664859 101.645161,111.496266 C102.219355,111.327673 102.290323,110.915556 102.741935,110.753207 C103.193548,110.590858 103.580645,110.634567 103.993548,110.45973 C104.406452,110.284893 104.219355,110.053858 105.006452,109.835311 C105.449811,109.762208 105.898644,109.724615 106.348387,109.722916 C107.096774,109.679206 107.096774,108.555252 106.348387,108.617694 L106.348387,108.617694 Z M122.303226,103.965772 C121.187097,104.6339 119.858065,104.515261 118.735484,105.102215 C117.611809,105.701288 116.396512,106.122874 115.135484,106.351053 C114.462464,106.370431 113.793794,106.462585 113.141935,106.625797 C112.832258,106.756925 112.632258,107.1066 112.354839,107.250216 C111.612903,107.599891 110.954839,107.144065 110.193548,107.537449 C109.548387,107.880879 110.122581,108.848729 110.780645,108.505298 C110.935484,108.424124 111.677419,108.811264 112.006452,108.76131 C112.619355,108.667647 112.503226,108.461589 113.012903,108.218066 C114.483802,107.639864 116.025515,107.247415 117.6,107.050402 C118.632258,106.888053 118.696774,106.688239 119.483871,106.169971 C120.129032,105.745366 119.658065,105.951425 120.716129,105.857762 C121.501851,105.716655 122.243536,105.402601 122.883871,104.939866 C123.522581,104.552726 122.941935,103.578632 122.303226,103.965772 Z M105.4,91.1651814 C104.348034,91.1255648 103.296239,91.2478067 102.283871,91.5273444 C102.2,90.9716115 102.135484,90.4158785 102.090323,89.8539014 C102.006452,88.7799006 100.264516,88.7736564 100.354839,89.8539014 C100.412903,90.5719833 100.503226,91.283821 100.612903,91.9956587 C99.7806452,92.2516705 98.9677419,92.5139265 98.2064516,92.7137406 C97.7612376,92.8517954 97.5080472,93.3054171 97.6328148,93.7414813 C97.7575824,94.1775455 98.2157998,94.4404957 98.6709677,94.3372302 C99.3870968,94.1499045 100.154839,93.8938926 100.941935,93.6503692 C101.090323,94.199858 101.264516,94.7431026 101.380645,95.2925913 C101.281696,95.5868929 101.361429,95.9100395 101.587097,96.1293128 L101.645161,96.1792664 C101.837988,96.3594907 102.104903,96.4452814 102.370816,96.4125039 C102.63673,96.3797264 102.872906,96.2319228 103.012903,96.0106732 C103.432258,95.3300565 102.890323,94.3809395 102.716129,93.7003227 C102.670968,93.5254854 102.63871,93.3568923 102.6,93.1820549 C103.511454,92.9285043 104.458759,92.8167964 105.406452,92.8511128 C106.516129,92.9510199 106.516129,91.2713326 105.4,91.1651814 L105.4,91.1651814 Z" id="Shape" fill="#FFFFFF"></path>
                <path d="M57.916129,61.3429275 C57.0516129,58.4206464 56.3483871,55.4609001 55.7741935,52.4699328 C55.0258065,48.5860463 48.6774194,49.3103724 49.4516129,53.2192357 C50.1290323,56.7534475 51,60.2377058 52.0322581,63.6907432 C52.5096774,65.2955001 54.7290323,65.9511401 56.1935484,65.3641862 C57.9225806,64.6773253 58.3935484,62.9539287 57.916129,61.3429275 L57.916129,61.3429275 Z" id="Shape" fill="#FFC534" style="mix-blend-mode: multiply;"></path>
                <path d="M57.9032258,120.668982 C56.0451613,106.311506 53.8752688,91.9977401 51.3935484,77.7276834 C50.7096774,73.8250644 44.5677419,75.4797748 45.2516129,79.3699055 C47.483871,92.1663333 49.455914,105.000226 51.1677419,117.871584 C51.283871,118.801969 55.6709677,120.188179 57.9032258,120.668982 Z" id="Shape" fill="#445AA8" style="mix-blend-mode: multiply;"></path>
                <path d="M97.4967742,85.0958282 C97.4967742,85.0958282 108.916129,84.3277928 111.722581,84.4714092 C114.529032,84.6150256 115.819355,84.8897699 117.458065,84.7898629 C118.589988,84.6939588 119.703307,84.4503078 120.767742,84.0655368 L120.43871,81.8925585 L97.4967742,85.0958282 Z" id="Shape" fill="#7850FF" style="mix-blend-mode: multiply;"></path>
                <path d="M114.83871,138.340041 C115.193548,109.042299 118.064516,84.0905136 125.116129,55.6045165 C125.224465,54.9585353 125.484951,54.3453499 125.877419,53.8124338 C126.516658,53.1460136 127.304317,52.6292485 128.180645,52.3013397 C148.774194,45.1080322 174.316129,35.9415606 196.219355,35.3296299 C184.922581,56.0540982 178.303226,81.8363608 177.993548,106.051332 C177.993548,106.051332 177.896774,110.915556 177.316129,112.882476 C176.735484,114.849396 120.064516,145.508371 117.741935,144.665406 C115.419355,143.82244 114.83871,138.340041 114.83871,138.340041 L114.83871,138.340041 Z" id="Shape" fill="#7850FF"></path>
                <path d="M194.909677,34.6177922 C182.722276,35.9598589 170.684447,38.3610746 158.941935,41.7923671 C153.012903,43.4970311 147.141935,45.3765324 141.290323,47.3122315 C138.602151,48.1989065 135.91828,49.1084769 133.23871,50.0409427 C131.058065,50.802734 128.16129,51.2897808 126.264516,52.6010608 C123.748387,54.3057248 123.683871,58.5767511 123.258065,61.1868228 C122.490323,65.7763028 121.16129,70.2908525 120.322581,74.8803326 C118.470968,84.9959212 117.503226,95.2551262 115.806452,105.395692 C113.722581,117.690503 112.477419,129.623151 114.322581,142.036601 C114.619355,144.01601 117.729032,143.173044 117.432258,141.206124 C115.832258,130.447384 116.63871,119.913434 118.406452,109.235869 C119.993548,99.6572805 121.206452,90.0537155 122.658065,80.4626389 C123.303226,76.0042868 124.154839,71.5334464 125.23871,67.1437805 C126.051613,63.7906502 126.367742,60.2252174 127.374194,56.934529 C128.083871,54.605446 130.464516,54.34319 132.664516,53.5689104 C135.111828,52.7072121 137.567742,51.8746533 140.032258,51.0712342 C145.36129,49.2916399 150.716129,47.5495107 156.103226,45.9322654 C168.8,42.1233092 181.722581,39.169807 194.948387,37.7711084 C196.987097,37.5525617 197.012903,34.4304665 194.948387,34.6490131 L194.909677,34.6177922 Z" id="Shape" fill="#7850FF" style="mix-blend-mode: multiply;"></path>
                <path d="M134.612903,74.1560065 C134.032258,76.0292636 134.677419,77.6589973 135.632258,79.3636613 C136.580621,80.9460961 138.265456,81.9827338 140.148387,82.1423261 C142.029001,82.2669882 143.890678,81.7130944 145.374194,80.5875227 C147.358305,79.1422689 148.583332,76.9240448 148.722581,74.5244137 C148.819355,72.1578655 148.077419,69.8912243 146.03871,68.567456 C144.852184,67.6824771 143.401074,67.1938752 141.903226,67.1750015 C140.529032,67.2436876 138.270968,67.9367927 137.258065,68.9733283 C136.245161,70.009864 135.483871,71.3273882 134.612903,74.1560065 L134.612903,74.1560065 Z" id="Shape" fill="#7850FF" style="mix-blend-mode: multiply;"></path>
                <path d="M134.290323,72.994587 C133.709677,74.8678442 134.354839,76.4975779 135.309677,78.2022419 C136.258041,79.7846766 137.942875,80.8213144 139.825806,80.9809067 C141.70642,81.1055687 143.568097,80.5516749 145.051613,79.4261032 C147.035724,77.9808495 148.260752,75.7626254 148.4,73.3629943 C148.496774,70.9964461 147.754839,68.7298049 145.716129,67.4060365 C144.529603,66.5210576 143.078493,66.0324558 141.580645,66.013582 C140.206452,66.0822681 137.948387,66.7753733 136.935484,67.8119089 C135.922581,68.8484445 135.174194,70.1597245 134.290323,72.994587 Z" id="Shape" fill="#FFC534"></path>
                <path d="M159.251613,65.2642792 C158.670968,67.1375363 159.316129,68.76727 160.270968,70.4719341 C161.219331,72.0543688 162.904165,73.0910066 164.787097,73.2505988 C166.667711,73.3752609 168.529387,72.8213671 170.012903,71.6957954 C171.997015,70.2505416 173.222042,68.0323176 173.36129,65.6326864 C173.458065,63.2661382 172.716129,60.9994971 170.677419,59.6757287 C169.490894,58.7907498 168.039783,58.3021479 166.541935,58.2832742 C165.167742,58.3519603 162.909677,59.0450654 161.896774,60.0816011 C160.883871,61.1181367 160.141935,62.4419051 159.251613,65.2642792 L159.251613,65.2642792 Z" id="Shape" fill="#7850FF" style="mix-blend-mode: multiply;"></path>
                <path d="M158.929032,64.0966155 C158.348387,65.9698727 158.993548,67.5996064 159.948387,69.3042704 C160.89675,70.8867052 162.581585,71.9233429 164.464516,72.0829352 C166.34513,72.2075973 168.206807,71.6537035 169.690323,70.5281318 C171.674434,69.082878 172.899461,66.8646539 173.03871,64.4650228 C173.135484,62.0984746 172.393548,59.8318334 170.354839,58.508065 C169.168313,57.6230862 167.717203,57.1344843 166.219355,57.1156106 C164.845161,57.1842967 162.587097,57.8774018 161.574194,58.9139374 C160.56129,59.9504731 159.819355,61.2679973 158.929032,64.0966155 L158.929032,64.0966155 Z" id="Shape" fill="#FFC534"></path>
                <path d="M129.909677,100.075641 C129.329032,101.948898 129.974194,103.578632 130.929032,105.283296 C131.877396,106.865731 133.56223,107.902369 135.445161,108.061961 C137.325775,108.186623 139.187452,107.632729 140.670968,106.507157 C142.655079,105.061904 143.880106,102.84368 144.019355,100.444048 C144.116129,98.0775003 143.374194,95.8108591 141.335484,94.4870907 C140.148958,93.6021119 138.697848,93.11351 137.2,93.0946363 C135.825806,93.1633224 133.567742,93.8564275 132.554839,94.8929631 C131.541935,95.9294988 130.8,97.2470229 129.909677,100.075641 L129.909677,100.075641 Z" id="Shape" fill="#7850FF" style="mix-blend-mode: multiply;"></path>
                <path d="M129.587097,98.9142218 C129.006452,100.787479 129.651613,102.417213 130.606452,104.121877 C131.554815,105.704311 133.239649,106.740949 135.122581,106.900541 C137.003194,107.025204 138.864871,106.47131 140.348387,105.345738 C142.332499,103.900484 143.557526,101.68226 143.696774,99.2826291 C143.793548,96.9160809 143.051613,94.6494397 141.012903,93.3256713 C139.826377,92.4406924 138.375267,91.9520906 136.877419,91.9332168 C135.503226,92.0019029 133.245161,92.6950081 132.232258,93.7315437 C131.219355,94.7680793 130.477419,96.0793593 129.587097,98.9142218 L129.587097,98.9142218 Z" id="Shape" fill="#FFC534"></path>
                <path d="M154.554839,91.1651814 C153.974194,93.0384385 154.619355,94.6681723 155.574194,96.3728363 C156.522557,97.955271 158.207391,98.9919088 160.090323,99.1515011 C161.970936,99.2761631 163.832613,98.7222693 165.316129,97.5966976 C167.300241,96.1514438 168.525268,93.9332198 168.664516,91.5335886 C168.76129,89.1670404 168.019355,86.9003993 165.980645,85.5766309 C164.794119,84.691652 163.343009,84.2030502 161.845161,84.1841764 C160.470968,84.2528625 158.212903,84.9459677 157.2,85.9825033 C156.187097,87.0190389 155.43871,88.3490515 154.554839,91.1651814 L154.554839,91.1651814 Z" id="Shape" fill="#7850FF" style="mix-blend-mode: multiply;"></path>
                <path d="M154.225806,90.0162503 C153.645161,91.8895075 154.290323,93.5192412 155.245161,95.2239052 C156.193525,96.80634 157.878359,97.8429777 159.76129,98.00257 C161.641904,98.1272321 163.503581,97.5733383 164.987097,96.4477666 C166.971208,95.0025128 168.196235,92.7842887 168.335484,90.3846576 C168.432258,88.0181094 167.690323,85.7514682 165.651613,84.4276998 C164.472273,83.5535383 163.03368,83.0697214 161.548387,83.0477337 C160.174194,83.1164198 157.916129,83.809525 156.903226,84.8460606 C155.890323,85.8825962 155.116129,87.187632 154.225806,90.0162503 L154.225806,90.0162503 Z" id="Shape" fill="#FFC534"></path>
                <path d="M129.096774,128.174499 C128.516129,130.047756 129.16129,131.677489 130.116129,133.382153 C131.064492,134.964588 132.749327,136.001226 134.632258,136.160818 C136.512872,136.28548 138.374549,135.731586 139.858065,134.606015 C141.842176,133.160761 143.067203,130.942537 143.206452,128.542906 C143.303226,126.176358 142.56129,123.909716 140.522581,122.585948 C139.336055,121.700969 137.884944,121.212367 136.387097,121.193494 C135.012903,121.26218 132.754839,121.955285 131.741935,122.99182 C130.729032,124.028356 129.980645,125.339636 129.096774,128.174499 L129.096774,128.174499 Z" id="Shape" fill="#7850FF" style="mix-blend-mode: multiply;"></path>
                <path d="M128.767742,127.006835 C128.187097,128.880092 128.832258,130.509826 129.787097,132.21449 C130.73546,133.796925 132.420294,134.833562 134.303226,134.993155 C136.18384,135.117817 138.045517,134.563923 139.529032,133.438351 C141.513144,131.993097 142.738171,129.774873 142.877419,127.375242 C142.974194,125.008694 142.232258,122.742053 140.193548,121.418284 C139.007023,120.533306 137.555912,120.044704 136.058065,120.02583 C134.683871,120.094516 132.425806,120.787621 131.412903,121.824157 C130.4,122.860692 129.677419,124.171972 128.767742,127.006835 L128.767742,127.006835 Z" id="Shape" fill="#FFC534"></path>
                <path d="M153.735484,119.264039 C153.154839,121.137296 153.8,122.76703 154.754839,124.471694 C155.703202,126.054128 157.388036,127.090766 159.270968,127.250358 C161.151581,127.37502 163.013258,126.821127 164.496774,125.695555 C166.480886,124.250301 167.705913,122.032077 167.845161,119.632446 C167.941935,117.265898 167.2,114.999257 165.16129,113.675488 C163.974764,112.790509 162.523654,112.301907 161.025806,112.283034 C159.651613,112.35172 157.393548,113.044825 156.380645,114.081361 C155.367742,115.117896 154.619355,116.447909 153.735484,119.264039 L153.735484,119.264039 Z" id="Shape" fill="#7850FF" style="mix-blend-mode: multiply;"></path>
                <path d="M153.412903,118.115108 C152.832258,119.988365 153.477419,121.618098 154.432258,123.322763 C155.380621,124.905197 157.065456,125.941835 158.948387,126.101427 C160.829001,126.226089 162.690678,125.672196 164.174194,124.546624 C166.158305,123.10137 167.383332,120.883146 167.522581,118.483515 C167.619355,116.116967 166.877419,113.850326 164.83871,112.526557 C163.652184,111.641578 162.201074,111.152976 160.703226,111.134103 C159.329032,111.202789 157.070968,111.895894 156.058065,112.93243 C155.045161,113.968965 154.296774,115.280245 153.412903,118.115108 L153.412903,118.115108 Z" id="Shape" fill="#FFC534"></path>
                <path d="M41.7483871,115.099164 C41.7483871,115.099164 107.393548,140.450577 115.864516,142.142753 C124.335484,143.834928 189.36129,104.958598 189.36129,104.958598 L191.083871,170.572552 C191.083871,170.572552 191.509677,173.90695 188.748387,175.137055 C176.006452,180.825513 118.929032,208.34366 116.490323,209.480103 C114.703226,210.304336 111.877419,210.323069 97.4774194,205.252786 C85.2193548,200.931806 53.3419355,186.907354 44.2709677,182.711258 C41.7806452,181.556083 41.7806452,177.33501 41.7806452,177.33501 L41.7483871,115.099164 Z" id="Shape" fill="#14BEF0"></path>
                <path d="M115.864516,142.136509 C115.864516,142.136509 121.780645,145.108743 122.806452,146.613593 C123.832258,148.118443 128.458065,149.766909 129.574194,150.984526 C130.690323,152.202144 135.348387,154.65611 138.793548,156.922752 C140.779745,158.264242 143.297455,158.635756 145.606452,157.928066 L153.206452,153.101307 C153.206452,153.101307 157.077419,151.390399 159.354839,149.192444 C161.632258,146.994489 171.941935,142.092799 173.670968,140.100902 C175.4,138.109006 188.212903,131.502652 189.877419,129.373383 C191.541935,127.244114 202.580645,121.761715 202.580645,121.761715 L207.129032,118.870655 L212.083871,115.748559 C212.347609,115.520935 212.509559,115.202971 212.535484,114.861884 C212.535484,114.437279 210.845161,113.869058 210.845161,113.869058 L194.83871,107.212751 L193.658065,106.725704 L189.367742,104.958598 L115.864516,142.136509 Z M115.864516,142.136509 C115.864516,142.136509 103.941935,151.715097 99.0903226,157.803182 C98.3790027,158.641365 97.1538348,158.874332 96.1677419,158.358915 C93.1225806,156.535612 86.9096774,150.834666 76.7419355,149.217421 C73.6967742,148.736618 70.7870968,147.706326 69.0451613,146.407535 C67.3032258,145.108743 65.1096774,144.59672 62.9096774,144.184603 C57.2645161,143.135579 56.9677419,141.062508 52.2322581,140.363158 C35.5290323,137.821773 21.3483871,130.640954 15.8064516,128.798918 C14.8903226,128.492952 14.5741935,127.793603 15.8903226,126.869463 C21.3806452,123.010553 36.1290323,113.269616 41.7483871,115.099164 L115.864516,142.136509 Z" id="Shape" fill="#32E1FF"></path>
                <path d="M46.516129,116.835049 L44,115.917153 C43.0064516,115.55499 42.0645161,115.199071 41.7483871,115.092919 L29.3612903,111.177812 C28.7692931,110.903329 28.1423336,110.70596 27.4967742,110.590858 C26.5741935,110.547149 26.6193548,110.066346 25.5612903,109.966439 C24.916129,109.916485 24.4129032,109.385729 23.8,109.410706 C22.9032258,109.448171 22.6193548,108.842485 21.5806452,108.711357 C19.3354839,108.430368 17.6,107.462519 16.2967742,107.044158 C14.9935484,106.625797 15.2,106.013866 16.6193548,105.327005 C17.9096774,104.702586 19.5806452,103.5599 21.7806452,102.829329 C22.9870968,102.423457 23.2129032,102.023829 24.0451613,101.730352 C25.116129,101.349456 25.4903226,100.906119 26.316129,100.631374 C27.0162169,100.355023 27.693458,100.027289 28.3419355,99.6510363 L31.5677419,98.0899887 C37.3741935,95.2801029 42.5741935,92.7886709 43.1806452,92.5513917 L46.516129,116.835049 Z M182.180645,108.586473 L189.36129,104.952354 L213.058065,95.5361148 C213.058065,95.5361148 181.154839,82.8042103 180.077419,82.5294659 C180.077419,82.5294659 179.051613,90.0224945 178.787097,92.3827985 C178.574194,94.4933349 178.141935,100.131839 178.141935,100.131839 L182.180645,108.586473 Z" id="Shape" fill="#32E1FF"></path>
                <path d="M189.36129,104.958598 L178.025806,100.194281 L177.606452,110.903068 L189.36129,104.958598 Z M41.7483871,115.092919 L45.8580645,112.027022 L46.516129,116.835049 L41.7483871,115.092919 Z" id="Shape" fill="#734A9C"></path>
                <path d="M118.445161,144.01601 C118.283871,141.830543 114.290323,141.818055 114.445161,144.01601 C115.941691,164.595061 115.680589,185.258556 113.664516,205.796031 C113.451613,207.987742 117.451613,207.975253 117.664516,205.796031 C119.680589,185.258556 119.941691,164.595061 118.445161,144.01601 L118.445161,144.01601 Z" id="Shape" fill="#14BEF0" style="mix-blend-mode: multiply;"></path>
                <path d="M166.187097,136.010958 C165.73458,136.010958 165.367742,136.366001 165.367742,136.80397 C165.367742,137.241938 165.73458,137.596982 166.187097,137.596982 C166.639614,137.596982 167.006452,137.241938 167.006452,136.80397 C167.006452,136.366001 166.639614,136.010958 166.187097,136.010958 L166.187097,136.010958 Z M139.548387,145.427197 L139.03871,145.427197 C138.586193,145.427197 138.219355,145.782241 138.219355,146.220209 C138.219355,146.658178 138.586193,147.013221 139.03871,147.013221 L139.548387,147.013221 C140.000904,147.013221 140.367742,146.658178 140.367742,146.220209 C140.367742,145.782241 140.000904,145.427197 139.548387,145.427197 Z M60.2774194,149.236153 L59.7677419,149.236153 C59.3152248,149.236153 58.9483871,149.591197 58.9483871,150.029165 C58.9483871,150.467134 59.3152248,150.822177 59.7677419,150.822177 L60.2774194,150.822177 C60.7299365,150.822177 61.0967742,150.467134 61.0967742,150.029165 C61.0967742,149.591197 60.7299365,149.236153 60.2774194,149.236153 L60.2774194,149.236153 Z M218.141935,173.032763 C201.8181,165.432815 184.885379,159.124312 167.509677,154.169064 C165.916129,153.713238 165.232258,156.123495 166.825806,156.579321 C183.990507,161.465084 200.718282,167.687979 216.845161,175.187009 C218.329032,175.880114 219.63871,173.725868 218.141935,173.032763 L218.141935,173.032763 Z M190.445161,218.196993 C178.832258,205.564996 153.670968,186.813692 136.554839,180.688141 C134.993548,180.126164 134.322581,182.561398 135.870968,183.098398 C152.277419,188.980426 177.16129,207.887835 188.219355,219.45832 C189.335484,220.625983 191.554839,219.402122 190.445161,218.196993 L190.445161,218.196993 Z M165.419355,174.980951 L152.606452,171.159506 C151.012903,170.684947 150.335484,173.095205 151.922581,173.569764 L164.735484,177.391208 C166.329032,177.865767 167.006452,175.461753 165.419355,174.980951 Z M46.9225806,157.684543 L35.0774194,163.766384 C33.6064516,164.521931 34.8903226,166.688666 36.3677419,165.939363 L48.2,159.851277 C49.6774194,159.09573 48.3870968,156.928996 46.9225806,157.684543 Z M8.60645161,114.793198 L7.74193548,114.793198 C7.28941836,114.793198 6.92258078,115.148242 6.92258078,115.58621 C6.92258078,116.024179 7.28941836,116.379223 7.74193548,116.379223 L8.59354839,116.379223 C9.04606557,116.382671 9.41579171,116.030423 9.41935484,115.592455 C9.42291797,115.154486 9.0589688,114.796647 8.60645161,114.793198 L8.60645161,114.793198 Z M179.767742,55.2735744 C179.315225,55.2735744 178.948387,55.628618 178.948387,56.0665866 C178.948387,56.5045551 179.315225,56.8595988 179.767742,56.8595988 C180.220259,56.8595988 180.587097,56.5045551 180.587097,56.0665866 C180.587097,55.628618 180.220259,55.2735744 179.767742,55.2735744 L179.767742,55.2735744 Z M219.135484,66.2258845 C218.682967,66.2258845 218.316129,66.5809282 218.316129,67.0188967 C218.316129,67.4568652 218.682967,67.8119089 219.135484,67.8119089 C219.588001,67.8119089 219.954839,67.4568652 219.954839,67.0188967 C219.954839,66.5809282 219.588001,66.2258845 219.135484,66.2258845 L219.135484,66.2258845 Z M19.6645161,76.6162175 C19.1084323,74.61164 17.7313218,72.9134584 15.8516129,71.9143421 C13.4530838,70.5873261 10.5082065,70.5873261 8.10967742,71.9143421 C7.67438377,72.1436628 7.27653009,72.4340378 6.92903226,72.7760404 C6.8,72.8821916 6.66451613,72.9820986 6.54193548,73.0944941 C5.63135719,73.9945815 4.96625138,75.0996382 4.60645161,76.3102522 C3.98122644,78.3398652 4.24969488,80.5292748 5.3483871,82.3608728 C6.71234447,84.6082265 9.18492919,86.0081368 11.8774194,86.0574336 C14.0285256,86.0674512 16.0967324,85.2550968 17.6322581,83.7970366 C19.5773654,81.9215479 20.3506352,79.1892617 19.6645161,76.6162175 L19.6645161,76.6162175 Z" id="Shape" fill="#FFC534"></path>
                <path d="M21.1870968,44.0090547 C17.3039459,39.9802265 12.8408112,36.5144176 7.93548387,33.7186287 C2.48387097,30.5965335 -2.46451613,38.8138882 2.98064516,41.9234951 C7.15726098,44.3083155 10.95206,47.2701109 14.2451613,50.7153153 C18.5612903,55.2111325 25.4903226,48.4798951 21.1870968,44.0090547 L21.1870968,44.0090547 Z" id="Shape" fill="#FF6E00"></path>
                <path d="M175.535484,7.74904042 C173.542161,6.96411672 171.303456,7.0047429 169.341935,7.86143585 C166.758016,8.97873072 165.31135,11.6729288 165.851613,14.3616382 C165.492355,17.3671878 167.429067,20.1841367 170.432258,21.0241894 C172.722581,21.7422713 175.4,20.6120729 176.987097,19.0010717 C178.352546,17.6050172 179.148038,15.7767427 179.225806,13.8558587 C179.44167,11.2724303 177.967795,8.83343408 175.535484,7.74904042 L175.535484,7.74904042 Z" id="Shape" fill="#FFC534"></path>
                <path d="M175.116129,16.0912789 C173.915656,13.8488435 172.227473,11.8847465 170.167742,10.3341353 C169.754839,10.0219258 169.174194,10.5839029 169.587097,10.8961124 C171.595601,12.4089623 173.240067,14.3265472 174.406452,16.5158839 C174.651613,16.9404888 175.354839,16.5408607 175.116129,16.0912789 L175.116129,16.0912789 Z M15.4322581,74.4432392 C12.6064516,76.3164964 10.4322581,78.8703703 7.72258065,80.8560229 C7.30967742,81.1619882 7.72258065,81.8488492 8.13548387,81.5366396 C10.8451613,79.5509871 13.0258065,76.9721364 15.8451613,75.123856 C16.2774194,74.8428674 15.8709677,74.1560065 15.4322581,74.4432392 Z" id="Shape" fill="#FFC534" style="mix-blend-mode: multiply;"></path>
                <path d="M21.1870968,44.0090547 C19.5262422,42.2838098 17.7550098,40.6612856 15.883871,39.1510745 C13.3935484,37.1404451 7.09677419,44.4711248 8.9483871,45.9322654 C10.8311394,47.4073184 12.6033349,49.0098584 14.2516129,50.7278037 C18.5612903,55.2111325 25.4903226,48.4798951 21.1870968,44.0090547 L21.1870968,44.0090547 Z" id="Shape" fill="#FFC534"></path>
                <path d="M13.8387097,38.5953415 C10.3225806,39.3384002 8.48387097,42.8851004 8.18064516,45.5076604 C8.12258065,46.0134398 8.74193548,46.2070097 8.87741935,45.7199629 C9.45806452,43.5844497 10.7612903,39.9690634 14.1290323,39.2447373 C14.5806452,39.1448303 14.2967742,38.5016787 13.8387097,38.5953415 L13.8387097,38.5953415 Z" id="Shape" fill="#FF6E00" style="mix-blend-mode: multiply;"></path>
                <path d="M139.148387,11.863962 C135.496774,12.4509159 131.574194,13.2064629 128.180645,12.3634972 C125.57779,11.6143884 122.821649,11.5134432 120.167742,12.0700202 L120.070968,11.963869 C120.148387,10.814938 121.154839,10.7150309 121.929032,10.6463448 C124.129032,10.5152168 124.954839,9.46619281 124.664516,7.41185413 C124.681704,6.9939644 124.820347,6.58924404 125.064516,6.24419051 C125.574194,3.90886326 127.193548,3.19078135 129.496774,3.18453716 C132.329032,3.18453716 135.103226,2.01687353 137.987097,2.76617639 C136.2,6.06935317 136.522581,9.11027395 139.148387,11.863962 L139.148387,11.863962 Z" id="Shape" fill="#01BCF1"></path>
                <path d="M125.064516,6.24419051 C125.748387,10.6151239 125.748387,10.6151239 121.432258,11.4018919 C120.960763,11.5406818 120.50643,11.7291357 120.077419,11.963869 C116.935484,11.5829734 115.83871,10.259205 116.587097,8.03627318 C117.090323,6.53766746 118.348387,6.78743508 119.425806,6.50644651 L125.064516,6.24419051 Z" id="Shape" fill="#0177CB"></path>
                <path d="M139.148387,11.863962 C135.922581,10.9772869 135.23871,5.40746898 137.980645,2.77242058 C141.593548,4.05872383 142.219355,8.947925 139.148387,11.863962 Z" id="Shape" fill="#445AA8"></path>
            </g>
        </g>
    </g>
</svg>
